<svg width="450" height="277" viewBox="0 0 450 277" fill="none" xmlns="http://www.w3.org/2000/svg">
<g clip-path="url(#clip0_28_277)">
<path opacity="0.1" d="M450 177.91C450.007 185.415 449.1 192.893 447.298 200.178C446.692 202.633 445.988 205.037 445.186 207.39C444.204 210.294 443.066 213.142 441.778 215.924C441.128 217.331 440.442 218.71 439.718 220.061C439.73 227.757 438.147 235.372 435.069 242.424C429.504 255.078 419.582 265.309 407.109 271.253C399.311 274.977 390.789 276.935 382.149 276.988H85.4248C72.2229 277.017 59.2491 273.546 47.8223 266.929L47.6465 266.829C46.0189 265.876 44.4321 264.867 42.886 263.801C39.4074 261.396 36.1392 258.7 33.1167 255.741C29.0257 251.741 25.4209 247.271 22.3769 242.424C15.2278 231.064 11.4405 217.909 11.4538 204.484C4.21373 191.771 -0.00805664 176.542 -0.00805664 160.177C-0.00805664 139.53 6.70095 120.696 17.7234 106.438C20.0214 103.459 22.5386 100.657 25.2539 98.0532C27.933 95.477 30.8127 93.1181 33.8655 90.9989C36.3081 89.3015 38.8608 87.7687 41.5068 86.4107C42.6109 85.8486 43.7189 85.3171 44.846 84.8239C45.8355 84.3842 46.8365 83.9751 47.849 83.5889C49.064 83.1276 50.2942 82.7032 51.5397 82.3157C52.7852 81.9283 54.0142 81.5893 55.2266 81.2987C57.0096 80.8628 58.8231 80.5085 60.6672 80.2357C62.1954 80.0101 63.7237 79.8534 65.2519 79.7349C66.4669 79.6431 67.6933 79.5934 68.9274 79.5781H69.596C70.9561 79.5781 72.3086 79.6316 73.6496 79.7234C73.791 79.4404 73.9438 79.1537 74.0852 78.8746C74.6201 77.8537 75.1741 76.8367 75.7319 75.8426C75.7306 75.8337 75.7306 75.8247 75.7319 75.8158C75.8274 75.6399 75.9229 75.4679 76.0222 75.2996C76.4731 74.4852 76.943 73.6785 77.4244 72.8794C77.646 72.497 77.8638 72.1376 78.0892 71.7782C78.1369 71.6889 78.1892 71.6021 78.2458 71.5182C78.4751 71.1358 78.7081 70.7535 78.945 70.3711C80.1243 68.4849 81.3507 66.6318 82.6243 64.8118L82.949 64.3453C83.1477 64.0624 83.3311 63.7871 83.5527 63.5042C84.0799 62.7662 84.6225 62.0245 85.1688 61.298C85.5509 60.778 85.9329 60.2619 86.3455 59.7686C87.3389 58.4941 88.3577 57.2196 89.402 55.9451C90.4463 54.6706 91.5314 53.4127 92.6572 52.1714C92.81 51.9993 92.9629 51.8311 93.1233 51.6628L94.7547 49.8811C94.835 49.797 94.9037 49.7205 94.9801 49.644C95.175 49.4337 95.3622 49.2235 95.5723 49.0208C96.4473 48.0917 97.3451 47.1817 98.2468 46.2755C102.836 41.7017 107.724 37.4392 112.88 33.5166C113.082 33.356 113.289 33.2031 113.491 33.0501C114.461 32.3198 115.447 31.5972 116.433 30.886C121.855 26.9935 127.522 23.4558 133.4 20.295C133.805 20.0617 134.218 19.8438 134.634 19.6297C139.904 16.8397 145.323 14.343 150.868 12.1509C153.89 10.9542 156.981 9.83009 160.091 8.80157C162.162 8.12099 164.24 7.47482 166.345 6.86689C169.636 5.91867 172.95 5.06858 176.287 4.31663C186.117 2.10927 196.117 0.745708 206.179 0.24079C209.236 0.0853018 212.327 0.00500965 215.452 -8.83322e-05C230.532 -0.0200675 245.553 1.88147 260.153 5.65867C260.304 5.88696 260.511 6.07308 260.753 6.1995C260.996 6.32591 261.267 6.38848 261.54 6.38131H262.824C263.382 6.53425 263.936 6.68719 264.493 6.84777C267.608 7.74502 270.679 8.7251 273.705 9.78803L274.469 10.0633C281.937 12.721 289.204 15.9156 296.212 19.622C302.529 22.9552 308.612 26.716 314.417 30.8784C315.311 31.5207 316.193 32.1682 317.061 32.8207C318.116 32.1452 319.188 31.4978 320.278 30.8784C324.488 28.4789 328.96 26.5712 333.604 25.1928C343.316 22.3169 353.591 21.9147 363.497 24.0229C376.201 26.7184 387.701 33.4095 396.989 42.9262C400.77 46.82 404.137 51.0973 407.033 55.689C407.243 56.0178 407.453 56.3504 407.656 56.6869C410.145 60.7509 412.285 65.0192 414.051 69.4459C414.116 69.6103 414.181 69.7632 414.239 69.9238C415.87 74.0689 417.185 78.3315 418.174 82.6751C418.22 82.8969 418.273 83.1148 418.319 83.3366C419.244 87.5402 419.872 91.8037 420.199 96.0956C420.199 96.2485 420.199 96.4053 420.229 96.5658C420.39 98.786 420.471 101.029 420.474 103.295C420.474 105.322 420.405 107.333 420.279 109.329C420.279 109.547 420.248 109.772 420.229 109.998C420.195 110.575 420.145 111.145 420.096 111.726C423.014 114.081 425.745 116.66 428.264 119.438C429.377 120.654 430.455 121.916 431.496 123.223C434.67 127.203 437.458 131.475 439.825 135.982C446.286 148.187 450 162.544 450 177.91Z" fill="#6C63FF"/>
<path opacity="0.1" d="M406.827 269.839C406.827 272.45 397.837 274.897 382.15 277H85.4252C72.2234 277.028 59.2495 273.557 47.8227 266.94L47.647 266.841C52.1553 265.197 60.2932 263.664 71.3692 262.279L71.8659 262.218C76.8327 261.61 82.384 261.033 88.4512 260.486C88.604 260.486 88.7606 260.463 88.9135 260.444C93.7274 260.016 98.8483 259.615 104.276 259.24C104.448 259.24 104.616 259.209 104.788 259.202C106.882 259.051 109.019 258.908 111.199 258.773L112.04 258.72C127.914 257.733 145.959 256.946 165.528 256.426H165.551C168.292 256.349 171.062 256.282 173.861 256.223C176.974 256.149 180.124 256.084 183.313 256.028C185.747 255.975 188.211 255.936 190.683 255.898H190.741C201.893 255.73 213.416 255.646 225.199 255.646C254.335 255.646 281.874 256.177 306.276 257.133H306.345C310.097 257.278 313.78 257.439 317.371 257.603L320.428 257.749C324.48 257.942 328.428 258.15 332.272 258.372C377.469 260.945 406.827 265.124 406.827 269.839Z" fill="#6C63FF"/>
<g opacity="0.2">
<path d="M259.909 253.891C259.897 254.303 259.85 254.714 259.768 255.118C257.109 254.695 254.434 254.313 251.744 253.971C251.744 253.864 251.744 253.753 251.744 253.642C251.769 252.496 252.099 251.376 252.7 250.4C253.487 249.153 254.682 248.373 256.001 248.415C257.319 248.457 258.461 249.31 259.168 250.599C259.702 251.611 259.958 252.747 259.909 253.891Z" fill="#2B3F61"/>
<path d="M260.128 247.357C260.222 244.4 258.468 241.945 256.212 241.874C253.955 241.802 252.05 244.142 251.956 247.099C251.863 250.056 253.617 252.51 255.873 252.582C258.13 252.653 260.035 250.314 260.128 247.357Z" fill="#2B3F61"/>
<path d="M260.337 240.811C260.43 237.854 258.677 235.399 256.42 235.328C254.163 235.257 252.258 237.596 252.165 240.553C252.072 243.51 253.825 245.965 256.082 246.036C258.339 246.107 260.244 243.768 260.337 240.811Z" fill="#2B3F61"/>
<path d="M260.542 234.265C260.635 231.308 258.881 228.853 256.625 228.782C254.368 228.711 252.463 231.05 252.37 234.007C252.276 236.964 254.03 239.419 256.286 239.49C258.543 239.561 260.448 237.222 260.542 234.265Z" fill="#2B3F61"/>
<path d="M260.746 227.719C260.839 224.762 259.086 222.307 256.829 222.236C254.573 222.164 252.667 224.504 252.574 227.461C252.481 230.418 254.234 232.873 256.491 232.944C258.748 233.015 260.653 230.676 260.746 227.719Z" fill="#2B3F61"/>
<path d="M242.754 182.3C242.216 181.571 241.731 180.804 241.303 180.006L252.1 178.58L240.477 178.3C239.44 175.839 238.916 173.191 238.936 170.519C238.956 167.847 239.521 165.208 240.596 162.762L255.924 171.346L241.883 160.319C243.3 158.026 245.173 156.05 247.387 154.515C249.601 152.979 252.107 151.917 254.749 151.395C257.392 150.872 260.113 150.9 262.744 151.478C265.375 152.055 267.859 153.169 270.04 154.75C272.221 156.331 274.054 158.346 275.422 160.667C276.791 162.989 277.666 165.568 277.994 168.243C278.322 170.919 278.095 173.633 277.327 176.217C276.56 178.8 275.268 181.198 273.533 183.26C274.37 184.394 275.081 185.615 275.654 186.903L261.483 193.709L276.51 189.186C277.456 192.311 277.608 195.622 276.953 198.821C276.298 202.019 274.856 205.004 272.758 207.504C274.939 210.466 276.244 213.983 276.522 217.653C276.801 221.322 276.042 224.995 274.332 228.253C272.622 231.511 270.031 234.222 266.855 236.075C263.678 237.929 260.044 238.85 256.369 238.734C252.694 238.618 249.125 237.47 246.072 235.419C243.018 233.369 240.603 230.501 239.101 227.142C237.6 223.782 237.074 220.068 237.583 216.424C238.092 212.779 239.615 209.352 241.979 206.533C239.372 202.993 238.031 198.679 238.169 194.284C238.308 189.889 239.919 185.668 242.743 182.3H242.754Z" fill="#64B1DC"/>
<path opacity="0.1" d="M277.342 195.521C277.209 199.919 275.593 204.142 272.758 207.504C274.939 210.466 276.244 213.983 276.522 217.653C276.801 221.322 276.042 224.995 274.332 228.253C272.622 231.511 270.031 234.222 266.855 236.075C263.678 237.929 260.044 238.85 256.369 238.734C252.694 238.618 249.125 237.47 246.072 235.42C243.018 233.369 240.603 230.501 239.101 227.142C237.6 223.782 237.074 220.068 237.583 216.424C238.092 212.779 239.615 209.352 241.979 206.533C239.469 203.119 277.411 193.323 277.342 195.521Z" fill="#2B3F61"/>
</g>
<g opacity="0.2">
<path d="M201.836 253.891C201.823 254.303 201.776 254.714 201.694 255.118C199.035 254.695 196.361 254.313 193.671 253.971C193.671 253.864 193.671 253.753 193.671 253.642C193.696 252.496 194.025 251.376 194.626 250.4C195.413 249.153 196.609 248.373 197.927 248.415C199.245 248.457 200.388 249.31 201.094 250.599C201.629 251.611 201.885 252.747 201.836 253.891Z" fill="#3F3D56"/>
<path d="M202.051 247.359C202.144 244.402 200.391 241.947 198.134 241.876C195.877 241.804 193.972 244.143 193.879 247.1C193.786 250.057 195.539 252.512 197.796 252.584C200.053 252.655 201.958 250.316 202.051 247.359Z" fill="#3F3D56"/>
<path d="M202.259 240.813C202.353 237.856 200.599 235.401 198.342 235.33C196.086 235.258 194.181 237.597 194.087 240.554C193.994 243.511 195.748 245.966 198.004 246.038C200.261 246.109 202.166 243.77 202.259 240.813Z" fill="#3F3D56"/>
<path d="M202.464 234.267C202.558 231.31 200.804 228.855 198.547 228.783C196.291 228.712 194.385 231.051 194.292 234.008C194.199 236.965 195.952 239.42 198.209 239.492C200.466 239.563 202.371 237.224 202.464 234.267Z" fill="#3F3D56"/>
<path d="M202.669 227.721C202.762 224.764 201.008 222.309 198.752 222.238C196.495 222.166 194.59 224.505 194.497 227.462C194.403 230.419 196.157 232.874 198.414 232.946C200.67 233.017 202.575 230.678 202.669 227.721Z" fill="#3F3D56"/>
<path d="M184.681 182.3C184.143 181.571 183.658 180.804 183.229 180.006L194.026 178.58L182.404 178.3C181.367 175.839 180.842 173.191 180.863 170.519C180.883 167.847 181.448 165.208 182.522 162.762L197.851 171.346L183.81 160.319C185.226 158.026 187.1 156.05 189.314 154.515C191.527 152.979 194.034 151.917 196.676 151.395C199.318 150.872 202.04 150.9 204.671 151.478C207.302 152.055 209.785 153.169 211.967 154.75C214.148 156.331 215.98 158.346 217.349 160.667C218.717 162.989 219.593 165.568 219.921 168.243C220.249 170.919 220.022 173.633 219.254 176.217C218.487 178.8 217.195 181.198 215.46 183.26C216.297 184.394 217.008 185.615 217.58 186.903L203.41 193.709L218.436 189.186C219.383 192.311 219.535 195.622 218.88 198.821C218.225 202.019 216.783 205.004 214.684 207.504C216.866 210.466 218.171 213.983 218.449 217.653C218.728 221.322 217.968 224.995 216.259 228.253C214.549 231.511 211.958 234.222 208.781 236.075C205.605 237.929 201.971 238.85 198.296 238.734C194.621 238.618 191.052 237.47 187.998 235.419C184.945 233.369 182.529 230.501 181.028 227.142C179.527 223.782 179.001 220.068 179.51 216.424C180.018 212.779 181.542 209.352 183.906 206.533C181.299 202.993 179.957 198.679 180.096 194.284C180.235 189.889 181.845 185.668 184.67 182.3H184.681Z" fill="#64B1DC"/>
<path opacity="0.1" d="M219.269 195.521C219.135 199.919 217.52 204.142 214.684 207.504C216.866 210.466 218.171 213.983 218.449 217.653C218.728 221.322 217.968 224.995 216.259 228.253C214.549 231.511 211.958 234.222 208.781 236.075C205.605 237.929 201.971 238.85 198.296 238.734C194.621 238.618 191.052 237.47 187.998 235.42C184.945 233.369 182.529 230.501 181.028 227.142C179.527 223.782 179.001 220.068 179.51 216.424C180.018 212.779 181.542 209.352 183.906 206.533C181.395 203.119 219.338 193.323 219.269 195.521Z" fill="black"/>
</g>
<g opacity="0.2">
<path d="M360.468 258.074C360.439 258.855 360.345 259.633 360.189 260.398C355.069 259.58 349.913 258.849 344.719 258.204C344.719 257.997 344.719 257.787 344.719 257.573C344.768 255.365 345.403 253.21 346.561 251.329C348.089 248.932 350.381 247.429 352.914 247.506C355.448 247.582 357.652 249.23 359.027 251.712C360.065 253.666 360.562 255.863 360.468 258.074Z" fill="#3F3D56"/>
<path d="M360.883 245.486C361.063 239.791 357.685 235.063 353.338 234.926C348.992 234.789 345.322 239.293 345.142 244.988C344.963 250.682 348.341 255.41 352.687 255.547C357.034 255.685 360.703 251.18 360.883 245.486Z" fill="#3F3D56"/>
<path d="M361.281 232.883C361.46 227.189 358.083 222.461 353.736 222.324C349.389 222.186 345.72 226.691 345.54 232.385C345.36 238.08 348.738 242.807 353.085 242.945C357.431 243.082 361.101 238.578 361.281 232.883Z" fill="#3F3D56"/>
<path d="M361.682 220.281C361.861 214.587 358.483 209.859 354.137 209.721C349.79 209.584 346.121 214.089 345.941 219.783C345.761 225.478 349.139 230.205 353.486 230.343C357.832 230.48 361.502 225.975 361.682 220.281Z" fill="#3F3D56"/>
<path d="M361.631 207.105C361.801 201.408 358.414 196.683 354.066 196.553C349.717 196.422 346.053 200.935 345.882 206.632C345.711 212.329 349.098 217.054 353.447 217.184C357.796 217.315 361.46 212.802 361.631 207.105Z" fill="#3F3D56"/>
<path d="M327.438 120.252C326.408 118.849 325.474 117.376 324.646 115.844L345.43 113.099L323.06 112.56C321.062 107.82 320.051 102.723 320.089 97.5793C320.127 92.4356 321.214 87.3537 323.282 82.6447L352.796 99.1659L325.769 77.938C328.502 73.5348 332.111 69.7421 336.373 66.7963C340.634 63.8504 345.457 61.8145 350.539 60.8155C355.621 59.8164 360.855 59.8756 365.913 60.9893C370.972 62.103 375.747 64.2475 379.941 67.2889C384.135 70.3304 387.658 74.2037 390.29 78.6675C392.923 83.1313 394.609 88.0899 395.243 93.2342C395.876 98.3786 395.445 103.598 393.974 108.568C392.504 113.539 390.026 118.152 386.696 122.122C388.306 124.307 389.675 126.659 390.78 129.138L363.497 142.249L392.423 133.531C394.246 139.54 394.543 145.908 393.287 152.06C392.031 158.212 389.261 163.954 385.229 168.765C389.428 174.468 391.939 181.238 392.474 188.301C393.01 195.365 391.548 202.436 388.257 208.708C384.965 214.979 379.977 220.197 373.862 223.765C367.747 227.333 360.752 229.106 353.677 228.883C346.602 228.66 339.732 226.449 333.854 222.502C327.976 218.556 323.326 213.034 320.435 206.568C317.545 200.101 316.532 192.952 317.511 185.936C318.49 178.92 321.422 172.322 325.971 166.895C320.956 160.08 318.375 151.777 318.641 143.318C318.907 134.859 322.005 126.734 327.438 120.249V120.252Z" fill="#A5DAF8"/>
<path opacity="0.1" d="M394.032 145.701C393.781 154.162 390.685 162.291 385.245 168.772C389.444 174.475 391.954 181.245 392.49 188.309C393.025 195.372 391.564 202.444 388.272 208.715C384.981 214.987 379.992 220.204 373.877 223.772C367.762 227.34 360.767 229.114 353.692 228.89C346.617 228.667 339.748 226.456 333.869 222.51C327.991 218.564 323.341 213.042 320.451 206.575C317.561 200.109 316.547 192.959 317.526 185.943C318.505 178.928 321.437 172.329 325.987 166.903C321.119 160.322 394.166 141.469 394.032 145.701Z" fill="black"/>
</g>
<path d="M60.2969 258.747L64.3047 258.735H69.9554L77.1 142.585L147.854 24.4283L144.778 21.1248V12.759L68.259 139.848L60.2969 258.747Z" fill="#F1C0C0"/>
<path opacity="0.1" d="M64.7327 258.735H69.9555L77.1 142.585L147.854 24.4282L144.778 21.1248L71.797 140.815L64.7327 258.735Z" fill="black"/>
<path d="M48.4875 259.714L231.82 273.754L231.977 273.765L409.402 262.846L409.536 262.838V255.34L214.035 251.75L50.9289 251.593H49.7369L49.607 252.434L48.4875 259.714Z" fill="#F1C0C0"/>
<path opacity="0.1" d="M48.4875 259.714L231.82 273.754L231.977 273.765L409.402 262.846L409.536 262.7V255.497H409.379L231.82 261.431L50.9289 251.593H50.9022L50.5812 251.803L49.607 252.434L48.4875 259.714Z" fill="black"/>
<path opacity="0.1" d="M48.4875 259.714L231.82 273.754V261.431L50.5812 251.803L49.607 252.434L48.4875 259.714Z" fill="black"/>
<path d="M144.756 20.968L225.581 107.784L223.082 260.494L229.948 261.324L230.062 261.339H236.928L237.749 114.341L389.096 164.934L391.648 255.015L397.172 255.634L399.044 255.845L394.712 158.686L236.5 103.1L149.749 12.8469H144.756V20.968Z" fill="#F1C0C0"/>
<path opacity="0.1" d="M237.127 111.531L237.749 114.341L389.096 164.934L391.648 255.015L397.172 255.634L392.84 163.06L237.127 111.531Z" fill="black"/>
<path opacity="0.1" d="M144.756 20.968L225.581 107.784L223.082 260.494L229.948 261.324L231.82 102.787L144.756 12.8469V20.968Z" fill="black"/>
<path d="M237.421 172.818L292.931 183.757L292.95 183.761L390.173 202.928L394.624 201.142L394.609 200.829L394.318 194.615L237.478 162.9L237.421 172.818Z" fill="#F1C0C0"/>
<path opacity="0.1" d="M292.95 183.76L390.173 202.928L394.624 201.142L394.609 200.829L292.95 183.76Z" fill="black"/>
<path d="M296.667 134.036L298.169 216.753L298.944 259.19L305.779 258.961L310.081 258.816L308.744 135.233L305.779 134.246L305.13 134.036H296.667Z" fill="#F1C0C0"/>
<path opacity="0.1" d="M296.728 134.017V134.036L298.169 216.753L298.944 259.19L305.779 258.961V134.017H296.728Z" fill="black"/>
<path d="M189.602 155.161C190.003 155.379 190.386 155.628 190.748 155.906C191.176 156.281 191.561 156.703 191.894 157.164C193.533 159.286 195.046 161.753 194.886 164.429C194.889 164.818 194.816 165.205 194.67 165.566C194.523 165.926 194.307 166.255 194.034 166.532C193.358 167.109 192.387 167.136 191.501 167.136C190.538 167.136 189.525 167.136 188.693 166.639C187.86 166.142 187.164 165.175 186.179 165.198C186.039 165.221 185.897 165.221 185.758 165.198C185.418 165.087 185.35 164.639 185.128 164.356C184.746 163.848 183.94 163.974 183.34 164.196C182.74 164.418 182.075 164.75 181.483 164.494C181.139 164.313 180.858 164.031 180.677 163.687C179.259 161.393 178.958 158.636 178.69 155.971C178.526 154.35 177.273 148.822 180.73 150.079C182.259 150.63 183.688 151.731 185.078 152.538L189.602 155.161Z" fill="#3F3D56"/>
<path d="M186.186 155.707C186.495 155.93 186.869 156.042 187.25 156.027C187.63 156.012 187.994 155.87 188.284 155.623C188.853 155.109 189.215 154.405 189.304 153.643C189.686 153.524 189.881 154.025 190.125 154.331C190.553 154.851 191.424 154.843 191.814 155.398C192.085 155.78 192.024 156.312 192.215 156.744C192.464 157.302 193.079 157.592 193.499 158.044C193.896 158.537 194.182 159.109 194.34 159.722L194.966 161.603C195.266 162.386 195.459 163.205 195.539 164.039C195.579 164.456 195.535 164.876 195.41 165.276C195.286 165.676 195.083 166.047 194.813 166.367C193.973 167.274 192.594 167.369 191.375 167.342C190.968 167.351 190.561 167.303 190.167 167.201C189.086 166.864 188.395 165.775 188.108 164.677C187.822 163.58 187.852 162.429 187.684 161.305C187.502 160.201 187.181 159.124 186.729 158.101C186.393 157.306 185.468 156.12 185.483 155.275C185.758 155.275 185.957 155.528 186.186 155.707Z" fill="#3F3D56"/>
<path d="M187.558 151.834C187.379 151.292 187.275 150.727 187.248 150.156C187.248 149.009 187.772 147.931 188.299 146.906L183.932 147.499C183.405 147.571 182.816 147.678 182.518 148.118C182.405 148.336 182.346 148.578 182.346 148.823C182.346 149.069 182.405 149.311 182.518 149.529C182.737 149.965 182.911 150.422 183.038 150.894C183.048 151.306 183.095 151.717 183.179 152.121C183.315 152.418 183.506 152.687 183.741 152.913C184.99 154.297 185.926 155.929 186.859 157.547C186.832 157.501 189.491 155.44 189.384 154.767C189.323 154.385 188.555 153.926 188.311 153.559C187.973 153.026 187.719 152.444 187.558 151.834Z" fill="#BE6F72"/>
<path d="M225 136.896V140.662L160.558 153.241L157.215 155.268H145.68V153.146L208.995 137.837L225 136.896Z" fill="#F1C0C0"/>
<path opacity="0.1" d="M225 140.662L160.558 153.241L157.215 155.268H145.68L209.465 141.606L225 140.662Z" fill="black"/>
<path d="M173.261 243.808C172.543 242.938 171.552 242.337 170.449 242.102C169.346 241.867 168.196 242.013 167.186 242.516C166.97 242.618 166.78 242.767 166.629 242.952C166.247 243.487 166.491 244.225 166.525 244.887C166.613 246.5 165.33 247.812 164.176 248.94C163.557 249.544 162.926 250.19 162.647 251.012C162.369 251.834 162.575 252.878 163.324 253.306C163.651 253.47 164.006 253.569 164.371 253.597C165.592 253.835 166.844 253.87 168.077 253.7C169.295 253.466 170.491 252.774 171.018 251.65C171.12 251.346 171.289 251.067 171.511 250.836C172.184 250.304 173.215 250.928 173.979 250.549C174.61 250.236 174.637 249.742 174.644 249.092C174.667 247.295 174.4 245.261 173.261 243.808Z" fill="#4F8ACF"/>
<path d="M182.431 243.74C182.901 244.978 182.966 246.328 183.027 247.651C183.061 248.416 183.084 249.234 182.672 249.88C182.259 250.526 181.453 250.866 180.681 251.027C179.088 251.356 177.242 251.046 176.215 249.781C175.428 248.813 175.263 247.487 175.409 246.232C175.531 245.204 175.791 244 175.053 243.269C174.862 243.074 174.614 242.937 174.438 242.726C174.056 242.26 174.117 241.556 174.323 240.983C174.592 240.434 174.794 239.855 174.923 239.258C174.954 238.975 180.096 239.457 180.57 239.69C181.216 240.008 181.117 240.539 181.311 241.182C181.583 242.076 182.102 242.883 182.431 243.74Z" fill="#4F8ACF"/>
<path d="M183.374 188.811C184.383 189.465 184.773 190.75 184.929 191.943C185.361 195.212 184.605 198.515 184.547 201.815C184.494 206.438 185.831 211.144 184.689 215.622C184.005 218.298 184.585 221.357 183.944 224.06C183.753 224.863 183.401 225.62 183.218 226.423C182.836 228.163 183.237 229.983 183.775 231.684C183.947 232.143 184.057 232.622 184.1 233.11C184.074 233.861 183.884 234.597 183.542 235.267L181.25 240.692C180.994 241.3 179.985 241.399 179.34 241.48C178.125 241.625 176.768 241.728 175.802 240.975C174.835 240.222 174.602 238.96 174.453 237.782C174.167 235.522 174.04 233.244 174.071 230.965C174.113 230.371 174.06 229.773 173.914 229.195C173.704 228.541 173.242 227.975 173.116 227.283C172.955 226.388 173.41 225.509 173.578 224.607C173.694 223.783 173.681 222.946 173.54 222.125C173.391 220.902 173.219 219.678 173.024 218.462C172.749 216.761 173.143 215.082 173.406 213.377C173.655 211.775 173.338 210.143 173.024 208.552C173.051 209.843 172.89 211.131 172.547 212.375C172.344 212.983 172.054 213.565 171.878 214.184C171.095 216.964 172.764 219.881 172.528 222.76C172.417 224.106 171.89 225.436 172.039 226.763C172.142 227.734 172.593 228.625 172.902 229.551C173.211 230.476 173.372 231.535 172.902 232.399C171.66 234.747 172.589 237.939 173.701 240.348C173.926 240.775 174.123 241.217 174.289 241.671C174.617 242.757 174.342 243.923 174.43 245.055C174.11 245.107 173.783 245.086 173.472 244.992C173.162 244.899 172.876 244.736 172.638 244.516C172.47 244.34 172.333 244.133 172.168 243.95C171.709 243.512 171.166 243.172 170.571 242.952C170.222 242.756 169.825 242.665 169.425 242.688C169.005 242.805 168.628 243.04 168.336 243.365C167.958 243.697 167.558 244.003 167.137 244.279C166.957 244.416 166.748 244.509 166.525 244.55C166.414 244.567 166.299 244.549 166.198 244.497C166.097 244.446 166.015 244.364 165.964 244.263C165.94 244.199 165.926 244.132 165.922 244.064C165.78 242.91 165.705 241.748 165.696 240.585C165.696 238.585 163.305 237.209 163.003 235.232C162.762 233.638 163.209 232.013 163.06 230.407C162.987 229.581 162.758 228.771 162.774 227.945C162.774 227.409 162.896 226.886 162.938 226.354C162.973 225.764 162.964 225.172 162.911 224.584L162.793 222.737C162.678 220.913 162.552 219.051 161.834 217.384C160.982 215.438 160.478 213.357 160.344 211.236C160.267 209.898 160.317 208.56 160.164 207.218C160.027 206.005 159.721 204.801 159.809 203.585C159.881 202.645 160.191 201.735 160.263 200.794C160.412 198.986 159.725 197.227 159.186 195.495C158.647 193.763 158.25 191.843 158.957 190.172C159.058 189.898 159.226 189.654 159.446 189.461C159.717 189.282 160.025 189.167 160.347 189.125C166.903 187.747 173.622 187.318 180.299 187.852C181.387 187.913 182.444 188.243 183.374 188.811Z" fill="#3F3D56"/>
<path d="M161.685 148.202C165.065 148.202 167.805 145.46 167.805 142.077C167.805 138.694 165.065 135.952 161.685 135.952C158.305 135.952 155.564 138.694 155.564 142.077C155.564 145.46 158.305 148.202 161.685 148.202Z" fill="#BE6F72"/>
<path d="M160.5 149.728C160.588 150.078 160.588 150.444 160.5 150.794C160.404 151.039 160.269 151.266 160.099 151.467C159.507 152.232 158.851 152.946 158.139 153.601C158.502 154.412 159.155 155.057 159.969 155.409C160.778 155.754 161.626 155.997 162.495 156.132C162.928 156.246 163.379 156.277 163.824 156.224C164.234 156.121 164.623 155.945 164.97 155.704L168.371 153.666C168.884 153.388 169.359 153.045 169.784 152.645C170.408 152.004 170.761 151.146 170.77 150.252C170.786 150.091 170.742 149.931 170.648 149.8C170.518 149.687 170.354 149.618 170.182 149.605C168.986 149.342 168.042 148.37 167.507 147.269C167.024 146.14 166.711 144.946 166.579 143.725L162.953 145.637C162.414 145.923 161.88 146.21 161.322 146.459C160.966 146.619 160.248 146.753 159.996 147.078C159.515 147.678 160.374 149.005 160.5 149.728Z" fill="#BE6F72"/>
<path d="M158.162 152.488C157.646 152.912 157.243 153.457 156.989 154.075C156.752 154.84 156.989 155.646 157.203 156.403C158.206 159.63 158.972 162.926 159.496 166.264C159.817 168.558 159.935 170.887 160.092 173.208C160.413 177.941 160.879 185.489 161.501 190.192C163.794 190.295 166.029 189.626 168.302 189.381C172.551 188.93 176.925 189.962 181.086 188.999C180.077 185.011 179.069 178.201 178.06 174.217C177.614 172.647 177.304 171.042 177.135 169.419C177.048 168.252 177.101 167.082 177.116 165.909C177.151 163.615 177.025 161.32 176.899 159.026C176.753 156.35 176.608 153.673 175.974 151.054C175.93 150.721 175.774 150.412 175.531 150.179C175.149 149.9 174.652 149.999 174.197 150.06C172.805 150.237 171.396 149.903 170.232 149.12C169.727 148.776 169.051 148.355 168.581 148.737C168.381 148.968 168.248 149.25 168.199 149.552C167.991 150.093 167.67 150.583 167.258 150.99C166.845 151.397 166.351 151.711 165.807 151.911C164.719 152.305 163.578 152.54 162.422 152.607C162.068 152.683 161.7 152.641 161.372 152.488C160.829 152.156 160.791 150.959 160.107 150.878C159.507 150.81 158.567 152.102 158.162 152.488Z" fill="#3F3D56"/>
<path d="M167.202 161.825C165.792 160.476 165.173 158.518 164.145 156.855C163.445 155.736 162.551 154.752 161.505 153.949C160.979 153.601 160.497 153.192 160.069 152.729C159.706 152.282 159.431 151.685 158.88 151.513C158.653 151.464 158.417 151.47 158.193 151.532C157.968 151.594 157.763 151.71 157.593 151.869C157.256 152.19 156.937 152.53 156.638 152.886C155.018 154.564 152.171 154.798 150.888 156.74C150.541 157.152 150.306 157.645 150.204 158.174C149.834 161.001 150.565 163.862 152.244 166.165C152.569 166.699 153.068 167.104 153.658 167.312C153.578 168.025 153.672 168.747 153.933 169.415C154.64 171.835 155.509 174.204 156.534 176.507C156.289 177.408 156.118 178.328 156.023 179.257C155.755 181.593 156.003 183.963 155.751 186.303C155.545 188.215 154.987 190.077 154.968 191.993C154.968 192.298 154.995 192.662 155.258 192.818C155.399 192.891 155.556 192.924 155.713 192.914L160.412 193.055C163.14 193.136 165.895 193.216 168.581 192.711C168.939 192.658 169.286 192.549 169.609 192.386C170.518 191.878 170.82 190.731 170.965 189.71C171.155 188.386 171.23 187.048 171.19 185.711C171.76 187.511 172.436 189.373 174.155 190.153C175.064 190.566 176.104 190.536 177.101 190.509C179.25 190.413 181.392 190.192 183.516 189.848C183.647 189.864 183.779 189.849 183.904 189.805C184.028 189.76 184.14 189.688 184.231 189.592C184.322 189.497 184.389 189.381 184.428 189.255C184.466 189.128 184.474 188.995 184.452 188.865L184.475 186.777C184.521 182.537 183.47 178.484 183.061 174.263C182.931 172.932 182.943 171.587 182.618 170.283C182.484 169.736 182.289 169.201 182.171 168.65C182.069 168.111 182.005 167.566 181.98 167.018L181.682 162.812C181.54 160.866 181.338 158.988 181.189 157.046C181.107 155.155 180.833 153.276 180.371 151.441C180.039 150.294 179.347 148.994 178.152 148.852C177.514 148.78 176.895 149.059 176.287 149.254C174.794 149.724 173.191 149.717 171.702 149.235C171.242 149.053 170.763 148.924 170.273 148.852C170.027 148.819 169.776 148.851 169.547 148.947C169.317 149.042 169.117 149.197 168.967 149.395C168.819 149.694 168.749 150.025 168.764 150.359C168.585 154.178 168.252 158.113 167.202 161.825Z" fill="#4F8ACF"/>
<path d="M161.054 161.94C159.293 160.082 157.486 158.189 155.216 157.008C154.322 156.541 153.306 156.189 152.317 156.365C151.327 156.541 150.406 157.401 150.452 158.407C150.483 159.03 150.861 159.581 150.979 160.193C151.117 160.881 150.918 161.615 151.132 162.28C151.306 162.719 151.566 163.118 151.896 163.454L154.601 166.662C155.747 168 156.894 169.357 158.368 170.283C159.843 171.208 161.753 171.64 163.373 170.982C164.526 170.446 165.484 169.566 166.117 168.463C166.789 167.392 167.263 166.222 167.893 165.117C168.874 163.352 170.169 161.78 171.714 160.479C170.919 160.273 169.922 159.982 169.421 159.332C169.279 159.126 169.157 158.905 169.058 158.675L168.44 157.336C168.229 157.325 168.019 157.358 167.821 157.432C167.624 157.507 167.444 157.621 167.293 157.768C167.028 158.075 166.743 158.365 166.441 158.636C165.903 159.042 165.173 159.153 164.684 159.615C164.495 159.814 164.323 160.029 164.172 160.257C163.802 160.744 163.333 161.146 162.795 161.436C162.257 161.726 161.664 161.898 161.054 161.94Z" fill="#3F3D56"/>
<path d="M171.855 153.945C173.181 151.525 173.12 148.623 173.498 145.889C173.539 145.165 173.793 144.469 174.228 143.889C174.992 143.025 176.341 143.014 177.495 143.125C177.835 143.163 178.259 143.323 178.24 143.664C178.213 143.786 178.153 143.898 178.068 143.989C176.949 145.433 176.292 147.181 176.18 149.005C176.78 149.422 177.709 148.565 178.285 149.005C178.667 149.326 178.492 149.961 178.262 150.42C177.73 151.483 177.181 152.538 176.616 153.586C176.164 154.509 175.576 155.359 174.87 156.105C174.385 156.572 173.815 156.939 173.322 157.398C172.176 158.472 171.485 159.99 170.3 161.038C170.2 161.146 170.065 161.215 169.918 161.233C169.768 161.222 169.626 161.158 169.517 161.053C168.925 160.571 168.435 159.977 168.073 159.306C167.622 158.472 167.691 158.227 168.401 157.638C169.731 156.587 171.026 155.459 171.855 153.945Z" fill="#BE6F72"/>
<path d="M158.838 160.296C159.068 160.437 159.35 160.598 159.603 160.479C159.706 160.417 159.793 160.332 159.859 160.231C160.295 159.648 160.66 159.013 160.944 158.342C160.992 158.247 161.02 158.143 161.024 158.036C161.024 157.792 160.806 157.612 160.604 157.47C159.519 156.778 158.352 156.223 157.131 155.819C156.122 155.436 155.067 155.104 153.998 155.199C153.596 155.226 153.203 155.334 152.844 155.517C152.485 155.7 152.167 155.953 151.908 156.262C151.144 157.245 152.424 157.543 153.226 157.899C155.083 158.744 157.092 159.233 158.838 160.296Z" fill="#6C63FF"/>
<path opacity="0.1" d="M157.635 166.796C157.622 166.883 157.63 166.972 157.658 167.056C157.686 167.139 157.733 167.215 157.795 167.277C157.906 166.734 157.761 166.161 157.876 165.614C158.044 164.792 158.842 164.173 158.911 163.347C157.448 163.06 157.646 165.909 157.635 166.796Z" fill="black"/>
<path opacity="0.2" d="M225 136.896V140.662L209.465 141.607L208.995 137.837L225 136.896Z" fill="black"/>
<path d="M156.175 142.987C157.146 142.195 156.584 140.536 157.241 139.473C157.623 138.892 158.269 138.586 158.903 138.326C159.669 137.968 160.489 137.74 161.329 137.653C161.75 137.613 162.175 137.668 162.572 137.814C162.969 137.96 163.328 138.194 163.622 138.498C163.87 138.781 164.038 139.125 164.271 139.42C164.56 139.763 164.936 140.022 165.36 140.169C165.784 140.315 166.239 140.345 166.678 140.253C167.186 140.138 167.714 139.752 167.679 139.232C167.622 138.916 167.461 138.628 167.221 138.414L166.128 137.202C164.886 135.826 163.507 134.365 161.685 134.021C160.416 133.78 159.117 134.12 157.895 134.529C157.402 134.694 156.848 134.939 156.71 135.439C156.619 135.784 156.756 136.158 156.676 136.506C156.519 137.198 155.633 137.431 155.22 138.013C154.808 138.594 154.934 139.282 154.815 139.924C154.697 140.567 154.353 141.194 154.311 141.859C154.284 142.26 154.487 143.006 154.938 143.151C155.388 143.297 155.896 142.509 156.175 142.987Z" fill="#3F3D56"/>
<path d="M167.309 138.682C166.986 136.999 166.292 135.411 165.276 134.032C164.373 132.744 163.116 131.746 161.658 131.157C160.929 130.872 160.145 130.756 159.365 130.817C158.585 130.879 157.829 131.117 157.153 131.512C156.151 132.229 155.371 133.213 154.903 134.353C153.913 136.487 153.547 139.094 154.697 141.144C155.155 140.586 155.942 140.838 156.638 140.635C157.509 140.387 158.246 139.806 159.075 139.442C161.578 138.337 164.634 139.232 167.309 138.682Z" fill="#FED253"/>
<path opacity="0.1" d="M155.281 138.563C155.193 137.875 155.136 137.076 155.625 136.586C155.649 136.556 155.68 136.532 155.716 136.517C155.751 136.501 155.789 136.493 155.828 136.495C155.862 136.506 155.893 136.524 155.92 136.547C155.947 136.571 155.969 136.6 155.984 136.632C156.267 137.078 156.507 137.549 156.703 138.039C156.418 137.974 156.12 137.995 155.847 138.101C155.575 138.206 155.34 138.391 155.174 138.632" fill="black"/>
<path opacity="0.1" d="M164.21 136.621L164.073 135.256C164.05 135.143 164.06 135.027 164.099 134.919C164.157 134.829 164.246 134.764 164.349 134.736C164.452 134.707 164.562 134.718 164.657 134.766C164.845 134.871 165 135.026 165.104 135.214C165.422 135.702 165.686 136.224 165.891 136.77C165.276 136.651 164.643 136.659 164.031 136.793" fill="black"/>
<path opacity="0.1" d="M167.63 192.019V195.139L164.997 195.315H151.151V192.019H167.63Z" fill="black"/>
<path d="M167.63 192.019V195.315H151.151L107.375 140.437V137.844H116.552L167.63 192.019Z" fill="#F1C0C0"/>
<path opacity="0.1" d="M167.63 192.019V195.315H151.151L107.375 140.437V137.844H116.552L167.63 192.019Z" fill="black"/>
<path opacity="0.1" d="M167.63 192.019V195.315H151.151L107.375 140.437V137.844L151.388 192.019H167.63Z" fill="black"/>
<path d="M113.113 247.024C113.142 247.179 113.138 247.338 113.103 247.492C113.067 247.646 113.001 247.79 112.907 247.917C112.813 248.044 112.694 248.15 112.557 248.228C112.42 248.307 112.269 248.356 112.112 248.374C111.05 248.733 109.923 249.089 109.17 249.903C108.418 250.717 108.269 252.228 109.17 252.889C109.631 253.167 110.16 253.312 110.698 253.306C112.429 253.424 114.233 253.401 115.803 252.667C116.926 252.147 117.984 251.26 119.218 251.341C119.856 251.379 120.537 251.677 121.106 251.386C121.675 251.096 121.836 250.285 121.839 249.609C121.854 248.196 121.641 246.79 121.209 245.445C121.152 245.261 118.722 245.12 118.431 245.062L115.486 244.68C114.928 244.607 113.724 244.187 113.285 244.653C112.846 245.12 113.113 246.469 113.113 247.024Z" fill="#4F8ACF"/>
<path d="M130.692 237.48C130.817 238.169 131.019 238.841 131.296 239.484C131.704 240.524 132.228 241.629 133.229 242.134C134.138 242.589 135.254 242.424 136.178 241.992C136.564 241.832 136.902 241.575 137.16 241.246C137.459 240.726 137.592 240.128 137.542 239.53C137.542 238.05 137.454 236.521 136.778 235.205C136.198 234.058 135.185 233.072 135.17 231.802L131.689 232.475C131.503 232.493 131.325 232.564 131.177 232.678C131.067 232.794 130.99 232.938 130.956 233.095C130.584 234.526 130.494 236.015 130.692 237.48Z" fill="#4F8ACF"/>
<path d="M89.1275 201.157C88.9823 202.389 89.0434 203.708 89.6853 204.771C90.3271 205.833 91.6796 206.537 92.8487 206.113C92.9086 206.097 92.9649 206.07 93.0141 206.033C93.0633 205.995 93.1045 205.948 93.1353 205.895C93.1664 205.765 93.1487 205.629 93.0856 205.512C92.5695 204.134 92.612 202.608 93.2041 201.261C93.2805 201.085 93.4448 200.878 93.6243 200.947C93.6994 200.985 93.7599 201.047 93.7963 201.123C93.9812 201.443 94.0738 201.808 94.0637 202.178C94.0098 202.513 93.9995 202.854 94.0331 203.191C94.1057 203.52 94.4572 203.83 94.7629 203.689C94.8512 203.634 94.9276 203.562 94.9874 203.478C95.0472 203.393 95.0891 203.297 95.1106 203.195C95.9626 200.729 95.5767 198.034 95.187 195.453C95.1902 195.393 95.1804 195.334 95.1583 195.279C95.1361 195.224 95.1022 195.175 95.0588 195.134C95.0155 195.094 94.9637 195.063 94.9073 195.045C94.8509 195.027 94.7912 195.021 94.7323 195.028C92.929 194.849 91.9433 194.417 90.9117 196.095C90.0253 197.51 89.1275 199.456 89.1275 201.157Z" fill="#4F8ACF"/>
<path d="M110.21 194.883C109.675 197.108 109.136 199.36 109.102 201.647C109.111 203.071 109.218 204.493 109.422 205.902L109.824 209.214C109.961 210.33 110.095 211.443 110.29 212.548C110.414 213.117 110.482 213.697 110.492 214.28C110.455 214.854 110.364 215.424 110.221 215.981C109.981 217.152 109.846 218.342 109.82 219.537C109.778 221.449 110.015 223.36 110.164 225.272C110.461 229.082 110.416 232.91 110.03 236.712C109.876 237.738 110.098 238.785 110.657 239.66C110.883 239.936 111.07 240.242 111.211 240.57C111.497 241.446 110.828 242.321 110.657 243.22C110.547 243.92 110.719 244.636 111.136 245.209C111.553 245.783 112.18 246.167 112.88 246.278C115.937 246.642 119.077 246.477 121.832 247.877C122.122 247.028 121.488 246.064 121.778 245.2C121.962 244.665 122.466 244.317 122.81 243.866C123.272 243.178 123.502 242.361 123.467 241.533C123.481 240.453 123.289 239.38 122.902 238.371C122.577 237.53 122.111 236.701 122.138 235.798C122.138 235.355 122.294 234.888 122.115 234.479C121.991 234.244 121.824 234.035 121.622 233.864C120.48 232.612 119.778 231.021 119.624 229.333C119.475 227.658 119.528 225.971 119.784 224.309C119.971 222.726 120.223 221.055 121.228 219.82C120.762 216.075 121.036 212.275 122.034 208.636C122.134 208.3 122.29 207.91 122.634 207.829C122.771 207.815 122.909 207.835 123.036 207.885C123.164 207.936 123.278 208.016 123.368 208.12C123.968 208.682 124.254 209.496 124.514 210.276C124.8 211.121 125.091 212.024 124.873 212.888C124.781 213.27 124.598 213.607 124.491 213.974C124.259 214.711 124.299 215.508 124.606 216.218C124.755 216.478 124.849 216.765 124.881 217.063C124.845 217.319 124.768 217.567 124.651 217.797C124.51 218.25 124.465 218.727 124.519 219.198C124.574 219.669 124.727 220.123 124.969 220.531C125.456 221.343 126.056 222.081 126.753 222.722C126.42 224.189 126.506 225.721 127.001 227.142C127.037 227.206 127.06 227.276 127.068 227.349C127.077 227.422 127.071 227.496 127.051 227.566C126.982 227.712 126.806 227.765 126.669 227.868C126.287 228.182 126.524 228.774 126.78 229.184C127.481 230.307 128.256 231.382 129.099 232.403C129.863 233.317 129.794 235.079 130.933 235.408C131.411 235.512 131.906 235.512 132.384 235.408C133.508 235.236 134.761 234.911 135.311 233.917C135.536 233.508 135.628 233.011 135.98 232.705C136.331 232.399 136.786 232.346 136.981 231.979C137.175 231.611 136.958 231.13 137.023 230.705C137.088 230.281 137.458 229.941 137.577 229.493C137.859 228.461 136.656 227.612 136.492 226.557C136.255 225.027 138.18 223.88 138.1 222.351C137.932 219.028 137.825 215.691 137.653 212.368C137.437 209.392 137.407 206.405 137.561 203.425C137.695 201.57 137.943 199.628 137.263 197.904C136.285 195.472 133.588 194.107 130.978 193.847C128.369 193.587 125.767 194.206 123.181 194.612C118.888 195.274 114.526 195.365 110.21 194.883Z" fill="#3F3D56"/>
<path d="M117.965 158.338C121.346 158.338 124.086 155.596 124.086 152.213C124.086 148.83 121.346 146.088 117.965 146.088C114.585 146.088 111.845 148.83 111.845 152.213C111.845 155.596 114.585 158.338 117.965 158.338Z" fill="#FBBEBE"/>
<path d="M115.474 159.481C115.266 159.966 114.917 160.376 114.472 160.658C114.026 160.94 113.506 161.08 112.98 161.06C112.758 161.978 113.289 162.903 113.897 163.626C115.158 165.095 116.788 166.201 118.619 166.829C120.45 167.457 122.415 167.586 124.312 167.201C125.05 167.069 125.75 166.776 126.363 166.344C127.19 165.654 127.745 164.692 127.93 163.63C128.105 162.575 128.156 161.503 128.079 160.437C128.1 160.227 128.04 160.016 127.911 159.848C127.758 159.73 127.569 159.668 127.376 159.672C126.084 159.558 124.736 159.508 123.601 158.873C122.466 158.239 121.66 156.805 122.206 155.627C122.118 155.811 119.887 155.899 119.593 155.937C118.672 156.067 117.752 156.212 116.835 156.38C116.394 156.405 115.958 156.487 115.539 156.625C114.985 156.912 115.192 156.77 115.322 157.29C115.516 158.086 115.803 158.655 115.474 159.481Z" fill="#FBBEBE"/>
<path d="M120.132 163.205C119.307 163.215 118.485 163.124 117.683 162.934C116.873 162.745 116.159 162.268 115.673 161.592C115.39 161.164 115.207 160.625 114.756 160.384C114.019 160.001 113.178 160.648 112.59 161.24C112.054 161.825 111.433 162.325 110.748 162.724C109.931 163.156 108.976 163.309 108.204 163.817C107.601 164.273 107.083 164.832 106.676 165.469L101.262 172.848C99.0878 175.815 97.1966 179 95.2595 182.132C93.5823 184.843 92.7035 187.963 91.4389 190.888C91.3387 191.067 91.2973 191.272 91.3205 191.476C91.3663 191.675 91.607 191.836 91.7751 191.721C91.2059 192.287 91.7064 193.25 91.5726 194.046C91.4206 194.602 91.1036 195.099 90.6633 195.472C91.5043 195.362 92.358 195.402 93.1849 195.59C94.0396 195.833 94.8461 196.221 95.569 196.737C96.0313 196.665 95.9893 195.843 96.3331 195.537C96.5394 195.357 96.8451 195.38 97.1164 195.327C98.1365 195.128 98.5414 193.9 99.3247 193.208C99.978 192.631 100.903 192.444 101.594 191.901C102.717 191.018 102.958 189.446 103.546 188.142C104.047 187.037 104.834 186.074 105.273 184.942C105.56 184.208 105.697 183.413 106.106 182.736C106.76 181.642 107.99 181.061 109.163 180.537C109.904 180.205 110.691 179.861 111.49 179.914C111.447 181.692 111.222 183.443 111.608 185.179C111.742 185.791 111.929 186.387 112.089 186.995C112.819 189.733 112.991 192.585 113.025 195.407C114.781 195.005 116.574 194.79 118.374 194.765C119.792 194.722 121.205 194.906 122.623 194.879C124.304 194.849 125.966 194.524 127.647 194.409C129.328 194.294 131.085 194.409 132.572 195.174C132.451 192.751 132.519 190.322 132.774 187.909L133.179 184.108C133.271 183.004 133.44 181.908 133.687 180.828C133.909 179.956 134.23 179.115 134.474 178.247C135.334 175.188 135.177 171.923 135.013 168.738C134.929 167.102 134.299 165.492 133.557 164.035C133.289 163.494 132.983 162.973 132.64 162.475C131.745 161.24 130.551 160.252 129.171 159.604C127.791 158.955 126.269 158.667 124.747 158.766C124.553 158.772 124.361 158.814 124.182 158.889C123.859 159.095 123.607 159.396 123.46 159.749C122.669 161.171 121.522 162.362 120.132 163.205Z" fill="#3F3D56"/>
<path d="M112.582 154.243C112.754 153.861 113.216 153.719 113.499 153.414C114.042 152.832 113.797 151.903 113.881 151.119C114.019 149.972 114.97 149.013 116.059 148.604C117.169 148.247 118.351 148.172 119.497 148.386C120.049 148.426 120.582 148.603 121.049 148.902C121.247 149.047 121.431 149.235 121.618 149.368C121.959 149.575 122.367 149.64 122.756 149.549C123.144 149.458 123.482 149.219 123.696 148.883C122.344 147.254 120.846 145.533 118.791 145.032C118.085 144.888 117.367 144.821 116.647 144.83C115.696 144.811 114.714 144.795 113.835 145.159C112.639 145.652 111.799 146.787 111.367 148.011C110.99 149.251 110.788 150.538 110.767 151.834C110.689 152.699 110.689 153.57 110.767 154.434C110.915 155.616 111.353 156.742 112.043 157.711C112.137 157.862 112.269 157.985 112.425 158.067C114.168 158.831 112.441 154.561 112.582 154.243Z" fill="#3F3D56"/>
<path d="M123.498 147.938C123.288 146.137 122.004 144.65 120.64 143.453C119.541 142.416 118.231 141.627 116.8 141.14C115.36 140.716 113.702 140.808 112.468 141.668C111.474 142.36 110.844 143.461 110.359 144.57C109.721 145.878 109.405 147.32 109.438 148.776C109.533 150.221 110.236 151.685 111.489 152.416C111.94 151.75 112.724 151.406 113.476 151.135C116.757 149.889 120.102 148.822 123.498 147.938Z" fill="#FED253"/>
<path opacity="0.1" d="M111.91 147.189C112.032 147.189 112.112 147.315 112.173 147.418C112.484 147.903 112.752 148.415 112.972 148.948C112.525 149.043 111.757 149.15 111.535 148.757C111.417 148.558 111.558 147.17 111.91 147.189Z" fill="black"/>
<path opacity="0.1" d="M120.617 146.325C120.525 146.413 120.418 146.233 120.418 146.103V144.62C120.416 144.578 120.425 144.537 120.445 144.501C120.461 144.483 120.48 144.468 120.502 144.458C120.523 144.447 120.547 144.441 120.571 144.44C120.88 144.405 121.136 144.669 121.335 144.922C121.637 145.331 121.899 145.767 122.118 146.225L120.502 146.176" fill="black"/>
<path d="M140.786 170.891C141.138 170.557 141.513 170.249 141.909 169.969C142.968 169.262 144.248 168.983 145.436 168.532C146.624 168.08 147.831 167.35 148.294 166.165C148.525 165.424 148.6 164.642 148.515 163.871C148.526 163.548 148.469 163.226 148.347 162.926C148.202 162.662 147.995 162.436 147.743 162.269C146.131 161.076 143.969 160.98 141.967 161.102C137.553 161.376 133.227 162.457 129.202 164.291C128.989 164.362 128.803 164.495 128.667 164.674C128.589 164.839 128.553 165.022 128.564 165.205C128.493 166.333 128.639 167.463 128.996 168.535C129.523 169.896 130.608 170.994 131.063 172.382C131.269 173.005 131.338 173.666 131.517 174.294C131.665 174.941 132.047 175.511 132.591 175.892C134.1 176.794 135.525 175.582 136.572 174.641L140.786 170.891Z" fill="#3F3D56"/>
<path d="M121.022 176.186L119.085 171.957C118.801 171.371 118.556 170.767 118.351 170.149C118.13 169.411 118.023 168.646 117.816 167.905C117.136 165.435 115.421 163.378 114.584 160.957C114.531 160.739 114.423 160.537 114.271 160.372C114.149 160.286 114.009 160.227 113.862 160.201C113.715 160.174 113.563 160.181 113.419 160.219C112.25 160.422 111.337 161.313 110.267 161.818C109.77 162.047 109.235 162.2 108.739 162.464C108.49 162.581 108.27 162.751 108.094 162.962C107.917 163.172 107.788 163.418 107.715 163.683C107.596 164.268 107.887 164.83 108.131 165.4C109.17 167.748 109.407 170.371 109.453 172.94C109.487 174.668 109.4 176.523 108.379 177.911C106.419 180.587 107.673 184.518 108.406 187.756C108.494 188.138 108.597 188.551 108.658 188.957C108.723 189.464 108.752 189.975 108.746 190.486C108.746 192.203 108.651 193.973 107.932 195.529C108.642 195.907 109.423 196.128 110.225 196.179C112.443 196.462 114.671 196.661 116.907 196.776C117.608 196.842 118.314 196.806 119.005 196.669C119.824 196.447 120.547 195.958 121.058 195.28C121.57 194.601 121.84 193.771 121.828 192.922C121.95 193.981 122.176 195.132 122.944 195.866C123.712 196.6 124.831 196.711 125.874 196.768C128.818 196.924 131.769 196.841 134.7 196.519C134.887 196.511 135.071 196.468 135.242 196.393C135.808 196.11 135.838 195.33 135.792 194.703C135.708 193.53 135.62 192.356 135.479 191.19C135.359 190.446 135.298 189.694 135.296 188.941C135.354 188.167 135.482 187.399 135.678 186.647C136.19 184.261 136.595 181.826 136.423 179.383C136.355 178.787 136.331 178.188 136.35 177.589C136.45 176.24 137.16 174.955 137.026 173.613C136.644 169.667 136.335 165.618 135.235 161.81C135.036 161.129 134.784 160.399 134.192 160.009C133.427 159.497 132.354 159.764 131.479 159.439C131.068 159.248 130.678 159.016 130.314 158.747C129.522 158.252 128.614 157.972 127.681 157.937C126.978 157.91 126.195 158.067 125.771 158.633C125.575 158.951 125.445 159.306 125.389 159.676C124.835 162.009 124.185 164.314 123.536 166.62L122.913 168.83L121.243 174.764C121.079 175.395 121.19 175.59 121.022 176.186Z" fill="#4F8ACF"/>
<path d="M130.791 153.035L167.748 191.901V195.196H151.27L123.498 158.923" fill="#F1C0C0"/>
<path opacity="0.1" d="M130.791 153.035L167.748 191.901V195.196H151.27L123.498 158.923" fill="black"/>
<path opacity="0.1" d="M124.086 158.411L124.204 158.453L151.507 191.901H167.748V195.197H151.27L123.498 158.923L124.086 158.411Z" fill="black"/>
<path d="M128.338 159.229C127.001 159.814 125.515 160.563 125.114 161.97C125.035 162.217 125.018 162.48 125.064 162.735C125.162 163.035 125.348 163.298 125.599 163.49C125.849 163.682 126.152 163.793 126.466 163.809C127.096 163.825 127.721 163.71 128.304 163.473L136.194 160.865C136.408 160.797 136.652 160.693 136.706 160.483C136.719 160.351 136.693 160.217 136.629 160.101C136.385 159.504 136.144 158.285 135.632 157.868C135.212 157.531 134.379 157.65 133.871 157.657C131.915 157.673 130.077 158.464 128.338 159.229Z" fill="#6C63FF"/>
<path d="M135.372 161.175C136.702 161.171 138.023 161.376 139.289 161.783C140.56 162.196 141.686 162.966 142.532 164.001C142.779 164.29 142.954 164.633 143.044 165.002C143.121 165.385 144.366 165.614 144.091 165.874C144.928 165.74 144.729 166.134 145.577 166.127C146.425 166.119 147.342 165.901 147.851 165.224C148.204 164.668 148.361 164.01 148.298 163.355C148.309 162.901 148.223 162.45 148.045 162.032C147.663 161.229 146.785 160.797 145.975 160.426L139.151 157.302C138.755 157.091 138.33 156.941 137.89 156.855C137.52 156.82 137.147 156.829 136.778 156.881L133.688 157.237C134.363 157.675 134.914 158.281 135.284 158.997C135.655 159.712 135.833 160.512 135.8 161.317" fill="#3F3D56"/>
</g>
<defs>
<clipPath id="clip0_28_277">
<rect width="450" height="277" fill="white"/>
</clipPath>
</defs>
</svg>
