<svg width="565" height="411" viewBox="0 0 565 411" fill="none" xmlns="http://www.w3.org/2000/svg">
<g clip-path="url(#clip0_28_17)">
<path d="M329.112 72.4545C339.701 72.4545 348.285 63.8688 348.285 53.2778C348.285 42.6868 339.701 34.1011 329.112 34.1011C318.522 34.1011 309.938 42.6868 309.938 53.2778C309.938 63.8688 318.522 72.4545 329.112 72.4545Z" fill="#F2F2F2"/>
<path d="M477.845 357.058C506.344 335.348 519.956 298.865 511.434 264.063C511.222 263.198 510.999 262.336 510.764 261.475C505.114 240.817 491.137 221.183 470.767 214.582C453.662 209.04 434.992 213.302 417.148 211.098C382.119 206.771 354.962 178.424 335.853 148.743C316.745 119.063 302.059 85.8405 276.668 61.3203C234.815 20.9029 166.542 12.201 114.65 38.5097C62.7579 64.8185 29.7033 123.187 31.113 181.358C32.5227 239.529 67.0502 295.145 117.193 324.652C135.613 335.492 156.918 343.172 178.121 340.484C196.518 338.153 213.234 328.266 231.545 325.331C260.334 320.716 288.939 333.734 313.839 348.905C338.739 364.076 362.79 382.057 391.086 389.09C418.561 395.919 452.599 376.291 477.845 357.058Z" fill="#FFE70F"/>
<path d="M436.899 39.7312C436.274 39.3147 435.642 38.9196 435.017 38.5175C416.958 26.9656 397.602 17.5811 377.348 10.5576L372.652 75.3543H342.88V1.09882C341.006 0.710987 339.118 0.344702 337.229 -3.8147e-05V75.3543H301.849C282.372 75.3543 263.693 67.6158 249.921 53.841C236.148 40.0663 228.411 21.3837 228.411 1.9033V1.90323C226.515 2.31261 224.634 2.75072 222.753 3.21755V75.3543H193.936L189.462 13.5669C168.649 21.5507 148.889 32.0498 130.623 44.8305C130.307 45.046 129.991 45.2686 129.682 45.4841C128.095 46.5973 126.53 47.7321 124.972 48.8812V296.081H209.899L208.398 275.289L200.14 161.13H366.441L358.183 275.289L356.682 296.081H440.669V42.2306C439.419 41.3831 438.162 40.55 436.899 39.7312ZM222.753 142.277H198.776L194.345 81.0138H222.753V142.277ZM337.229 142.277H296.959V141.063C296.959 140.48 296.844 139.902 296.621 139.363C296.397 138.824 296.07 138.334 295.657 137.922C295.244 137.51 294.754 137.183 294.215 136.96C293.675 136.738 293.098 136.624 292.514 136.625H275.007C274.425 136.624 273.847 136.739 273.309 136.962C272.77 137.185 272.281 137.512 271.869 137.924C271.457 138.336 271.13 138.826 270.907 139.364C270.684 139.903 270.569 140.48 270.57 141.063V142.277H228.411V81.0138H337.229V142.277ZM342.88 142.277V81.0138H372.243L367.812 142.277H342.88Z" fill="#3F3D56"/>
<path d="M0 311.911C6.23815 319.304 12.9854 326.252 20.1924 332.703L544.808 333.421C552.015 326.97 558.762 320.022 565 312.629L0 311.911Z" fill="#3F3D56"/>
<path d="M355.759 245.334V306.887C355.759 307.671 356.071 308.423 356.626 308.978C357.18 309.533 357.932 309.845 358.717 309.845H449.916C450.7 309.845 451.452 309.533 452.007 308.978C452.561 308.423 452.873 307.671 452.874 306.887V245.334C452.872 244.55 452.56 243.799 452.005 243.245C451.451 242.691 450.7 242.379 449.916 242.378H358.717C357.933 242.379 357.182 242.691 356.627 243.245C356.073 243.799 355.761 244.55 355.759 245.334Z" fill="#3F3D56"/>
<path d="M357.898 246.099V306.128C357.899 306.547 358.065 306.948 358.362 307.245C358.658 307.541 359.06 307.708 359.479 307.709H449.157C449.576 307.708 449.977 307.541 450.274 307.245C450.57 306.948 450.737 306.547 450.737 306.128V246.099C450.737 245.68 450.571 245.277 450.275 244.98C449.978 244.683 449.576 244.516 449.157 244.515H359.479C359.059 244.516 358.657 244.683 358.361 244.98C358.064 245.277 357.898 245.68 357.898 246.099Z" fill="#3D69B7"/>
<path d="M353.851 318.891C354.018 319.101 354.23 319.27 354.472 319.385C354.714 319.501 354.979 319.561 355.247 319.559H452.9C453.167 319.559 453.43 319.499 453.671 319.384C453.913 319.269 454.125 319.102 454.293 318.894C454.461 318.687 454.581 318.444 454.644 318.185C454.707 317.925 454.711 317.655 454.656 317.393L453.14 310.192C453.078 309.898 452.942 309.625 452.747 309.397C452.551 309.169 452.302 308.993 452.022 308.886C451.818 308.806 451.602 308.766 451.384 308.766H356.756C356.538 308.766 356.322 308.806 356.119 308.886C355.838 308.993 355.589 309.169 355.393 309.397C355.198 309.625 355.063 309.898 355 310.192L353.484 317.393C353.43 317.655 353.435 317.925 353.499 318.184C353.562 318.443 353.682 318.685 353.851 318.891Z" fill="#2F2E41"/>
<path d="M448.033 311.868H450.34C450.534 311.868 450.69 311.711 450.69 311.517V310.413C450.69 310.22 450.534 310.063 450.34 310.063H448.033C447.84 310.063 447.683 310.22 447.683 310.413V311.517C447.683 311.711 447.84 311.868 448.033 311.868Z" fill="#3F3D56"/>
<path d="M442.018 311.868H444.324C444.518 311.868 444.675 311.711 444.675 311.517V310.413C444.675 310.22 444.518 310.063 444.324 310.063H442.018C441.824 310.063 441.667 310.22 441.667 310.413V311.517C441.667 311.711 441.824 311.868 442.018 311.868Z" fill="#3F3D56"/>
<path d="M436.003 311.868H438.309C438.503 311.868 438.66 311.711 438.66 311.517V310.413C438.66 310.22 438.503 310.063 438.309 310.063H436.003C435.809 310.063 435.652 310.22 435.652 310.413V311.517C435.652 311.711 435.809 311.868 436.003 311.868Z" fill="#3F3D56"/>
<path d="M429.987 311.868H432.294C432.488 311.868 432.645 311.711 432.645 311.517V310.413C432.645 310.22 432.488 310.063 432.294 310.063H429.987C429.794 310.063 429.637 310.22 429.637 310.413V311.517C429.637 311.711 429.794 311.868 429.987 311.868Z" fill="#3F3D56"/>
<path d="M423.972 311.868H426.279C426.472 311.868 426.629 311.711 426.629 311.517V310.413C426.629 310.22 426.472 310.063 426.279 310.063H423.972C423.778 310.063 423.621 310.22 423.621 310.413V311.517C423.621 311.711 423.778 311.868 423.972 311.868Z" fill="#3F3D56"/>
<path d="M417.957 311.868H420.263C420.457 311.868 420.614 311.711 420.614 311.517V310.413C420.614 310.22 420.457 310.063 420.263 310.063H417.957C417.763 310.063 417.606 310.22 417.606 310.413V311.517C417.606 311.711 417.763 311.868 417.957 311.868Z" fill="#3F3D56"/>
<path d="M411.941 311.868H414.248C414.441 311.868 414.598 311.711 414.598 311.517V310.413C414.598 310.22 414.441 310.063 414.248 310.063H411.941C411.748 310.063 411.591 310.22 411.591 310.413V311.517C411.591 311.711 411.748 311.868 411.941 311.868Z" fill="#3F3D56"/>
<path d="M405.926 311.868H408.232C408.426 311.868 408.583 311.711 408.583 311.517V310.413C408.583 310.22 408.426 310.063 408.232 310.063H405.926C405.732 310.063 405.575 310.22 405.575 310.413V311.517C405.575 311.711 405.732 311.868 405.926 311.868Z" fill="#3F3D56"/>
<path d="M399.911 311.868H402.217C402.411 311.868 402.568 311.711 402.568 311.517V310.413C402.568 310.22 402.411 310.063 402.217 310.063H399.911C399.717 310.063 399.56 310.22 399.56 310.413V311.517C399.56 311.711 399.717 311.868 399.911 311.868Z" fill="#3F3D56"/>
<path d="M393.895 311.868H396.202C396.395 311.868 396.552 311.711 396.552 311.517V310.413C396.552 310.22 396.395 310.063 396.202 310.063H393.895C393.702 310.063 393.545 310.22 393.545 310.413V311.517C393.545 311.711 393.702 311.868 393.895 311.868Z" fill="#3F3D56"/>
<path d="M387.88 311.868H390.186C390.38 311.868 390.537 311.711 390.537 311.517V310.413C390.537 310.22 390.38 310.063 390.186 310.063H387.88C387.686 310.063 387.529 310.22 387.529 310.413V311.517C387.529 311.711 387.686 311.868 387.88 311.868Z" fill="#3F3D56"/>
<path d="M381.865 311.868H384.171C384.365 311.868 384.522 311.711 384.522 311.517V310.413C384.522 310.22 384.365 310.063 384.171 310.063H381.865C381.671 310.063 381.514 310.22 381.514 310.413V311.517C381.514 311.711 381.671 311.868 381.865 311.868Z" fill="#3F3D56"/>
<path d="M375.849 311.868H378.156C378.349 311.868 378.506 311.711 378.506 311.517V310.413C378.506 310.22 378.349 310.063 378.156 310.063H375.849C375.656 310.063 375.499 310.22 375.499 310.413V311.517C375.499 311.711 375.656 311.868 375.849 311.868Z" fill="#3F3D56"/>
<path d="M369.834 311.868H372.14C372.334 311.868 372.491 311.711 372.491 311.517V310.413C372.491 310.22 372.334 310.063 372.14 310.063H369.834C369.64 310.063 369.483 310.22 369.483 310.413V311.517C369.483 311.711 369.64 311.868 369.834 311.868Z" fill="#3F3D56"/>
<path d="M363.818 311.868H366.125C366.319 311.868 366.476 311.711 366.476 311.517V310.413C366.476 310.22 366.319 310.063 366.125 310.063H363.818C363.625 310.063 363.468 310.22 363.468 310.413V311.517C363.468 311.711 363.625 311.868 363.818 311.868Z" fill="#3F3D56"/>
<path d="M357.803 311.868H360.109C360.303 311.868 360.46 311.711 360.46 311.517V310.413C360.46 310.22 360.303 310.063 360.109 310.063H357.803C357.609 310.063 357.452 310.22 357.452 310.413V311.517C357.452 311.711 357.609 311.868 357.803 311.868Z" fill="#3F3D56"/>
<path d="M448.104 314.876H450.411C450.605 314.876 450.761 314.719 450.761 314.525V313.422C450.761 313.228 450.605 313.071 450.411 313.071H448.104C447.911 313.071 447.754 313.228 447.754 313.422V314.525C447.754 314.719 447.911 314.876 448.104 314.876Z" fill="#3F3D56"/>
<path d="M442.089 314.876H444.396C444.589 314.876 444.746 314.719 444.746 314.525V313.422C444.746 313.228 444.589 313.071 444.396 313.071H442.089C441.895 313.071 441.738 313.228 441.738 313.422V314.525C441.738 314.719 441.895 314.876 442.089 314.876Z" fill="#3F3D56"/>
<path d="M436.074 314.876H438.38C438.574 314.876 438.731 314.719 438.731 314.525V313.422C438.731 313.228 438.574 313.071 438.38 313.071H436.074C435.88 313.071 435.723 313.228 435.723 313.422V314.525C435.723 314.719 435.88 314.876 436.074 314.876Z" fill="#3F3D56"/>
<path d="M430.058 314.876H432.365C432.558 314.876 432.715 314.719 432.715 314.525V313.422C432.715 313.228 432.558 313.071 432.365 313.071H430.058C429.865 313.071 429.708 313.228 429.708 313.422V314.525C429.708 314.719 429.865 314.876 430.058 314.876Z" fill="#3F3D56"/>
<path d="M424.043 314.876H426.35C426.543 314.876 426.7 314.719 426.7 314.525V313.422C426.7 313.228 426.543 313.071 426.35 313.071H424.043C423.85 313.071 423.693 313.228 423.693 313.422V314.525C423.693 314.719 423.85 314.876 424.043 314.876Z" fill="#3F3D56"/>
<path d="M418.028 314.876H420.334C420.528 314.876 420.685 314.719 420.685 314.525V313.422C420.685 313.228 420.528 313.071 420.334 313.071H418.028C417.834 313.071 417.677 313.228 417.677 313.422V314.525C417.677 314.719 417.834 314.876 418.028 314.876Z" fill="#3F3D56"/>
<path d="M412.012 314.876H414.319C414.512 314.876 414.669 314.719 414.669 314.525V313.422C414.669 313.228 414.512 313.071 414.319 313.071H412.012C411.819 313.071 411.662 313.228 411.662 313.422V314.525C411.662 314.719 411.819 314.876 412.012 314.876Z" fill="#3F3D56"/>
<path d="M405.997 314.876H408.303C408.497 314.876 408.654 314.719 408.654 314.525V313.422C408.654 313.228 408.497 313.071 408.303 313.071H405.997C405.803 313.071 405.646 313.228 405.646 313.422V314.525C405.646 314.719 405.803 314.876 405.997 314.876Z" fill="#3F3D56"/>
<path d="M399.982 314.876H402.288C402.482 314.876 402.639 314.719 402.639 314.525V313.422C402.639 313.228 402.482 313.071 402.288 313.071H399.982C399.788 313.071 399.631 313.228 399.631 313.422V314.525C399.631 314.719 399.788 314.876 399.982 314.876Z" fill="#3F3D56"/>
<path d="M393.966 314.876H396.273C396.467 314.876 396.624 314.719 396.624 314.525V313.422C396.624 313.228 396.467 313.071 396.273 313.071H393.966C393.773 313.071 393.616 313.228 393.616 313.422V314.525C393.616 314.719 393.773 314.876 393.966 314.876Z" fill="#3F3D56"/>
<path d="M387.951 314.876H390.257C390.451 314.876 390.608 314.719 390.608 314.525V313.422C390.608 313.228 390.451 313.071 390.257 313.071H387.951C387.757 313.071 387.6 313.228 387.6 313.422V314.525C387.6 314.719 387.757 314.876 387.951 314.876Z" fill="#3F3D56"/>
<path d="M381.936 314.876H384.242C384.436 314.876 384.593 314.719 384.593 314.525V313.422C384.593 313.228 384.436 313.071 384.242 313.071H381.936C381.742 313.071 381.585 313.228 381.585 313.422V314.525C381.585 314.719 381.742 314.876 381.936 314.876Z" fill="#3F3D56"/>
<path d="M375.92 314.876H378.227C378.42 314.876 378.577 314.719 378.577 314.525V313.422C378.577 313.228 378.42 313.071 378.227 313.071H375.92C375.727 313.071 375.57 313.228 375.57 313.422V314.525C375.57 314.719 375.727 314.876 375.92 314.876Z" fill="#3F3D56"/>
<path d="M369.905 314.876H372.211C372.405 314.876 372.562 314.719 372.562 314.525V313.422C372.562 313.228 372.405 313.071 372.211 313.071H369.905C369.711 313.071 369.554 313.228 369.554 313.422V314.525C369.554 314.719 369.711 314.876 369.905 314.876Z" fill="#3F3D56"/>
<path d="M363.89 314.876H366.196C366.39 314.876 366.547 314.719 366.547 314.525V313.422C366.547 313.228 366.39 313.071 366.196 313.071H363.89C363.696 313.071 363.539 313.228 363.539 313.422V314.525C363.539 314.719 363.696 314.876 363.89 314.876Z" fill="#3F3D56"/>
<path d="M357.874 314.876H360.181C360.374 314.876 360.531 314.719 360.531 314.525V313.422C360.531 313.228 360.374 313.071 360.181 313.071H357.874C357.681 313.071 357.524 313.228 357.524 313.422V314.525C357.524 314.719 357.681 314.876 357.874 314.876Z" fill="#3F3D56"/>
<path d="M398.177 318.486H421.537C421.731 318.486 421.888 318.329 421.888 318.135V317.031C421.888 316.838 421.731 316.681 421.537 316.681H398.177C397.984 316.681 397.827 316.838 397.827 317.031V318.135C397.827 318.329 397.984 318.486 398.177 318.486Z" fill="#3F3D56"/>
<path d="M373.428 257.648H371.386C370.767 257.648 370.265 258.15 370.265 258.769C370.265 259.388 370.767 259.89 371.386 259.89H373.428C374.047 259.89 374.549 259.388 374.549 258.769C374.549 258.15 374.047 257.648 373.428 257.648Z" fill="white"/>
<path d="M396.782 257.648H394.74C394.121 257.648 393.619 258.15 393.619 258.769C393.619 259.388 394.121 259.89 394.74 259.89H396.782C397.401 259.89 397.903 259.388 397.903 258.769C397.903 258.15 397.401 257.648 396.782 257.648Z" fill="white"/>
<path d="M403.399 257.648H401.357C400.737 257.648 400.236 258.15 400.236 258.769C400.236 259.388 400.737 259.89 401.357 259.89H403.399C404.018 259.89 404.52 259.388 404.52 258.769C404.52 258.15 404.018 257.648 403.399 257.648Z" fill="white"/>
<path d="M390.429 257.461H377.738C377.119 257.461 376.617 257.963 376.617 258.582C376.617 259.201 377.119 259.703 377.738 259.703H390.429C391.048 259.703 391.55 259.201 391.55 258.582C391.55 257.963 391.048 257.461 390.429 257.461Z" fill="white"/>
<path d="M421.568 257.461H408.877C408.258 257.461 407.756 257.963 407.756 258.582C407.756 259.201 408.258 259.703 408.877 259.703H421.568C422.187 259.703 422.689 259.201 422.689 258.582C422.689 257.963 422.187 257.461 421.568 257.461Z" fill="white"/>
<path d="M379.655 262.709H377.613C376.994 262.709 376.492 263.211 376.492 263.83C376.492 264.449 376.994 264.951 377.613 264.951H379.655C380.274 264.951 380.776 264.449 380.776 263.83C380.776 263.211 380.274 262.709 379.655 262.709Z" fill="white"/>
<path d="M403.009 262.709H400.967C400.348 262.709 399.846 263.211 399.846 263.83C399.846 264.449 400.348 264.951 400.967 264.951H403.009C403.629 264.951 404.13 264.449 404.13 263.83C404.13 263.211 403.629 262.709 403.009 262.709Z" fill="white"/>
<path d="M409.626 262.709H407.584C406.965 262.709 406.463 263.211 406.463 263.83C406.463 264.449 406.965 264.951 407.584 264.951H409.626C410.245 264.951 410.747 264.449 410.747 263.83C410.747 263.211 410.245 262.709 409.626 262.709Z" fill="white"/>
<path d="M396.657 262.522H383.966C383.347 262.522 382.845 263.024 382.845 263.643C382.845 264.262 383.347 264.764 383.966 264.764H396.657C397.276 264.764 397.778 264.262 397.778 263.643C397.778 263.024 397.276 262.522 396.657 262.522Z" fill="white"/>
<path d="M427.796 262.522H415.105C414.486 262.522 413.984 263.024 413.984 263.643C413.984 264.262 414.486 264.764 415.105 264.764H427.796C428.415 264.764 428.917 264.262 428.917 263.643C428.917 263.024 428.415 262.522 427.796 262.522Z" fill="white"/>
<path d="M385.883 267.77H383.841C383.222 267.77 382.72 268.272 382.72 268.891C382.72 269.51 383.222 270.012 383.841 270.012H385.883C386.502 270.012 387.004 269.51 387.004 268.891C387.004 268.272 386.502 267.77 385.883 267.77Z" fill="white"/>
<path d="M409.237 267.77H407.195C406.576 267.77 406.074 268.272 406.074 268.891C406.074 269.51 406.576 270.012 407.195 270.012H409.237C409.856 270.012 410.358 269.51 410.358 268.891C410.358 268.272 409.856 267.77 409.237 267.77Z" fill="white"/>
<path d="M415.854 267.77H413.812C413.193 267.77 412.691 268.272 412.691 268.891C412.691 269.51 413.193 270.012 413.812 270.012H415.854C416.473 270.012 416.975 269.51 416.975 268.891C416.975 268.272 416.473 267.77 415.854 267.77Z" fill="white"/>
<path d="M402.885 267.583H390.193C389.574 267.583 389.073 268.085 389.073 268.704C389.073 269.323 389.574 269.825 390.193 269.825H402.885C403.504 269.825 404.006 269.323 404.006 268.704C404.006 268.085 403.504 267.583 402.885 267.583Z" fill="white"/>
<path d="M434.024 267.583H421.332C420.713 267.583 420.211 268.085 420.211 268.704C420.211 269.323 420.713 269.825 421.332 269.825H434.024C434.643 269.825 435.145 269.323 435.145 268.704C435.145 268.085 434.643 267.583 434.024 267.583Z" fill="white"/>
<path d="M392.111 272.831H390.069C389.45 272.831 388.948 273.333 388.948 273.952C388.948 274.571 389.45 275.073 390.069 275.073H392.111C392.73 275.073 393.232 274.571 393.232 273.952C393.232 273.333 392.73 272.831 392.111 272.831Z" fill="white"/>
<path d="M415.465 272.831H413.423C412.804 272.831 412.302 273.333 412.302 273.952C412.302 274.571 412.804 275.073 413.423 275.073H415.465C416.084 275.073 416.586 274.571 416.586 273.952C416.586 273.333 416.084 272.831 415.465 272.831Z" fill="white"/>
<path d="M422.082 272.831H420.04C419.421 272.831 418.919 273.333 418.919 273.952C418.919 274.571 419.421 275.073 420.04 275.073H422.082C422.701 275.073 423.203 274.571 423.203 273.952C423.203 273.333 422.701 272.831 422.082 272.831Z" fill="white"/>
<path d="M409.113 272.644H396.421C395.802 272.644 395.3 273.146 395.3 273.765C395.3 274.384 395.802 274.886 396.421 274.886H409.113C409.732 274.886 410.234 274.384 410.234 273.765C410.234 273.146 409.732 272.644 409.113 272.644Z" fill="white"/>
<path d="M396.782 292.955H394.74C394.121 292.955 393.619 293.457 393.619 294.076C393.619 294.696 394.121 295.198 394.74 295.198H396.782C397.401 295.198 397.903 294.696 397.903 294.076C397.903 293.457 397.401 292.955 396.782 292.955Z" fill="white"/>
<path d="M403.399 292.955H401.357C400.737 292.955 400.236 293.457 400.236 294.076C400.236 294.696 400.737 295.198 401.357 295.198H403.399C404.018 295.198 404.52 294.696 404.52 294.076C404.52 293.457 404.018 292.955 403.399 292.955Z" fill="white"/>
<path d="M421.568 293.142H408.877C408.258 293.142 407.756 293.644 407.756 294.263C407.756 294.883 408.258 295.384 408.877 295.384H421.568C422.187 295.384 422.689 294.883 422.689 294.263C422.689 293.644 422.187 293.142 421.568 293.142Z" fill="white"/>
<path d="M373.428 292.955H371.386C370.767 292.955 370.265 293.457 370.265 294.076C370.265 294.696 370.767 295.198 371.386 295.198H373.428C374.047 295.198 374.549 294.696 374.549 294.076C374.549 293.457 374.047 292.955 373.428 292.955Z" fill="white"/>
<path d="M390.429 293.142H377.738C377.119 293.142 376.617 293.644 376.617 294.263C376.617 294.883 377.119 295.384 377.738 295.384H390.429C391.048 295.384 391.55 294.883 391.55 294.263C391.55 293.644 391.048 293.142 390.429 293.142Z" fill="white"/>
<path d="M379.655 287.894H377.613C376.994 287.894 376.492 288.396 376.492 289.015C376.492 289.635 376.994 290.137 377.613 290.137H379.655C380.274 290.137 380.776 289.635 380.776 289.015C380.776 288.396 380.274 287.894 379.655 287.894Z" fill="white"/>
<path d="M403.009 287.894H400.967C400.348 287.894 399.846 288.396 399.846 289.015C399.846 289.635 400.348 290.137 400.967 290.137H403.009C403.629 290.137 404.13 289.635 404.13 289.015C404.13 288.396 403.629 287.894 403.009 287.894Z" fill="white"/>
<path d="M409.626 287.894H407.584C406.965 287.894 406.463 288.396 406.463 289.015C406.463 289.635 406.965 290.137 407.584 290.137H409.626C410.245 290.137 410.747 289.635 410.747 289.015C410.747 288.396 410.245 287.894 409.626 287.894Z" fill="white"/>
<path d="M396.657 288.081H383.966C383.347 288.081 382.845 288.583 382.845 289.202C382.845 289.822 383.347 290.324 383.966 290.324H396.657C397.276 290.324 397.778 289.822 397.778 289.202C397.778 288.583 397.276 288.081 396.657 288.081Z" fill="white"/>
<path d="M385.883 282.833H383.841C383.222 282.833 382.72 283.335 382.72 283.954C382.72 284.574 383.222 285.076 383.841 285.076H385.883C386.502 285.076 387.004 284.574 387.004 283.954C387.004 283.335 386.502 282.833 385.883 282.833Z" fill="white"/>
<path d="M409.237 282.833H407.195C406.576 282.833 406.074 283.335 406.074 283.954C406.074 284.574 406.576 285.076 407.195 285.076H409.237C409.856 285.076 410.358 284.574 410.358 283.954C410.358 283.335 409.856 282.833 409.237 282.833Z" fill="white"/>
<path d="M415.854 282.833H413.812C413.193 282.833 412.691 283.335 412.691 283.954C412.691 284.574 413.193 285.076 413.812 285.076H415.854C416.473 285.076 416.975 284.574 416.975 283.954C416.975 283.335 416.473 282.833 415.854 282.833Z" fill="white"/>
<path d="M402.885 283.02H390.193C389.574 283.02 389.073 283.522 389.073 284.141C389.073 284.761 389.574 285.263 390.193 285.263H402.885C403.504 285.263 404.006 284.761 404.006 284.141C404.006 283.522 403.504 283.02 402.885 283.02Z" fill="white"/>
<path d="M392.111 277.772H390.069C389.45 277.772 388.948 278.274 388.948 278.893C388.948 279.513 389.45 280.015 390.069 280.015H392.111C392.73 280.015 393.232 279.513 393.232 278.893C393.232 278.274 392.73 277.772 392.111 277.772Z" fill="white"/>
<path d="M415.465 277.772H413.423C412.804 277.772 412.302 278.274 412.302 278.893C412.302 279.513 412.804 280.015 413.423 280.015H415.465C416.084 280.015 416.586 279.513 416.586 278.893C416.586 278.274 416.084 277.772 415.465 277.772Z" fill="white"/>
<path d="M422.082 277.772H420.04C419.421 277.772 418.919 278.274 418.919 278.893C418.919 279.513 419.421 280.015 420.04 280.015H422.082C422.701 280.015 423.203 279.513 423.203 278.893C423.203 278.274 422.701 277.772 422.082 277.772Z" fill="white"/>
<path d="M409.113 277.959H396.421C395.802 277.959 395.3 278.461 395.3 279.08C395.3 279.7 395.802 280.202 396.421 280.202H409.113C409.732 280.202 410.234 279.7 410.234 279.08C410.234 278.461 409.732 277.959 409.113 277.959Z" fill="white"/>
<path d="M362.571 352.268L352.985 337.112L383.074 313.122L395.494 299.361C397.107 297.573 399.162 296.24 401.452 295.495C403.742 294.75 406.187 294.619 408.543 295.115C410.9 295.612 413.085 296.718 414.88 298.323C416.675 299.929 418.017 301.978 418.772 304.264C419.892 307.653 419.651 311.345 418.101 314.56C416.551 317.774 413.813 320.261 410.464 321.495L390.825 328.731L362.571 352.268Z" fill="#FFB6B6"/>
<path d="M137.649 242.381V316.041H189.243V242.381C189.244 241.852 189.075 241.335 188.761 240.909C188.447 240.482 188.004 240.168 187.498 240.011C187.26 239.932 187.01 239.894 186.758 239.896H140.141C139.814 239.896 139.49 239.96 139.188 240.084C138.886 240.209 138.611 240.392 138.38 240.622C138.148 240.853 137.965 241.127 137.839 241.429C137.714 241.731 137.649 242.055 137.649 242.381ZM157.784 267.691C157.797 266.239 158.384 264.851 159.415 263.829C160.446 262.807 161.84 262.233 163.292 262.233C164.744 262.233 166.137 262.807 167.168 263.829C168.2 264.851 168.786 266.239 168.799 267.691V276.238C168.792 277.694 168.208 279.088 167.176 280.115C166.144 281.142 164.747 281.718 163.292 281.718C161.836 281.718 160.439 281.142 159.407 280.115C158.375 279.088 157.791 277.694 157.784 276.238V267.691Z" fill="#2F2E41"/>
<path d="M137.491 313.685V320.788C137.492 321.156 137.638 321.509 137.898 321.77C138.157 322.03 138.509 322.178 138.877 322.181H188.015C188.383 322.18 188.736 322.032 188.996 321.771C189.255 321.51 189.401 321.156 189.401 320.788V313.685H137.491Z" fill="#3F3D56"/>
<path d="M56.4841 131.404V265.895C56.4855 267.609 57.1668 269.253 58.3785 270.465C59.5902 271.677 61.2333 272.358 62.9469 272.359H262.214C263.928 272.358 265.571 271.677 266.783 270.465C267.994 269.253 268.676 267.609 268.677 265.895V131.404C268.673 129.692 267.99 128.051 266.779 126.84C265.568 125.63 263.926 124.949 262.214 124.947H62.9469C61.2347 124.949 59.5933 125.63 58.382 126.84C57.1706 128.051 56.4882 129.692 56.4841 131.404Z" fill="#3F3D56"/>
<path d="M61.1589 133.077V264.236C61.1605 265.152 61.5249 266.03 62.1723 266.677C62.8197 267.325 63.6973 267.689 64.6129 267.691H260.555C261.471 267.689 262.349 267.325 262.996 266.677C263.643 266.03 264.008 265.152 264.009 264.236V133.077C264.009 132.16 263.646 131.281 262.998 130.632C262.351 129.983 261.472 129.618 260.555 129.616H64.6129C63.6962 129.618 62.8178 129.983 62.1702 130.632C61.5227 131.281 61.159 132.16 61.1589 133.077Z" fill="white"/>
<path d="M97.5226 321.7C97.722 321.95 97.9755 322.152 98.2641 322.29C98.5526 322.428 98.8687 322.499 99.1885 322.497H215.762C216.081 322.497 216.395 322.426 216.683 322.288C216.971 322.151 217.224 321.951 217.425 321.704C217.626 321.456 217.769 321.167 217.844 320.857C217.919 320.547 217.924 320.224 217.859 319.912L216.049 311.315C215.974 310.964 215.812 310.638 215.579 310.366C215.346 310.094 215.048 309.884 214.713 309.756C214.471 309.661 214.213 309.613 213.952 309.613H100.991C100.73 309.613 100.472 309.661 100.23 309.756C99.8948 309.884 99.5971 310.094 99.3639 310.366C99.1306 310.638 98.9691 310.964 98.8941 311.315L97.0846 319.912C97.0202 320.224 97.0261 320.546 97.1018 320.855C97.1776 321.165 97.3213 321.453 97.5226 321.7Z" fill="#2F2E41"/>
<path d="M254.196 147.683H70.8537C70.6631 147.679 70.4818 147.6 70.3485 147.464C70.2152 147.328 70.1406 147.145 70.1406 146.954C70.1406 146.763 70.2152 146.58 70.3485 146.444C70.4818 146.308 70.6631 146.229 70.8537 146.225H254.196C254.387 146.229 254.568 146.308 254.702 146.444C254.835 146.58 254.91 146.763 254.91 146.954C254.91 147.145 254.835 147.328 254.702 147.464C254.568 147.6 254.387 147.679 254.196 147.683Z" fill="#3F3D56"/>
<path d="M83.3342 142.502C85.694 142.502 87.6071 140.546 87.6071 138.133C87.6071 135.72 85.694 133.764 83.3342 133.764C80.9743 133.764 79.0613 135.72 79.0613 138.133C79.0613 140.546 80.9743 142.502 83.3342 142.502Z" fill="#3F3D56"/>
<path d="M98.0951 142.502C100.455 142.502 102.368 140.546 102.368 138.133C102.368 135.72 100.455 133.764 98.0951 133.764C95.7353 133.764 93.8223 135.72 93.8223 138.133C93.8223 140.546 95.7353 142.502 98.0951 142.502Z" fill="#3F3D56"/>
<path d="M112.856 142.502C115.216 142.502 117.129 140.546 117.129 138.133C117.129 135.72 115.216 133.764 112.856 133.764C110.496 133.764 108.583 135.72 108.583 138.133C108.583 140.546 110.496 142.502 112.856 142.502Z" fill="#3F3D56"/>
<path d="M245.308 134.844H234.824C234.617 134.849 234.42 134.935 234.275 135.083C234.13 135.231 234.049 135.43 234.049 135.638C234.049 135.845 234.13 136.044 234.275 136.193C234.42 136.341 234.617 136.427 234.824 136.431H245.308C245.517 136.428 245.716 136.344 245.862 136.195C246.008 136.047 246.09 135.846 246.09 135.638C246.09 135.429 246.008 135.229 245.862 135.081C245.716 134.932 245.517 134.847 245.308 134.844Z" fill="#3F3D56"/>
<path d="M245.308 137.825H234.824C234.617 137.829 234.419 137.915 234.274 138.063C234.129 138.212 234.048 138.411 234.048 138.618C234.048 138.826 234.129 139.025 234.274 139.173C234.419 139.322 234.617 139.407 234.824 139.412H245.308C245.517 139.409 245.716 139.325 245.863 139.176C246.01 139.028 246.092 138.827 246.092 138.618C246.092 138.409 246.01 138.209 245.863 138.061C245.716 137.912 245.517 137.827 245.308 137.825Z" fill="#3F3D56"/>
<path d="M245.308 140.805H234.824C234.617 140.81 234.42 140.896 234.275 141.044C234.13 141.192 234.049 141.392 234.049 141.599C234.049 141.806 234.13 142.005 234.275 142.154C234.42 142.302 234.617 142.388 234.824 142.392H245.308C245.517 142.39 245.716 142.305 245.862 142.156C246.008 142.008 246.09 141.807 246.09 141.599C246.09 141.39 246.008 141.19 245.862 141.042C245.716 140.893 245.517 140.808 245.308 140.805Z" fill="#3F3D56"/>
<path d="M498.058 316.802C498.374 317.724 498.974 318.521 499.772 319.08C500.57 319.639 501.524 319.93 502.498 319.913L521.521 319.423C522.502 319.404 523.45 319.068 524.224 318.465C524.998 317.862 525.557 317.025 525.816 316.079L528.508 287.288C529.463 287.72 530.503 287.934 531.551 287.913C532.462 287.89 533.359 287.688 534.192 287.318C535.024 286.949 535.776 286.419 536.404 285.758C537.032 285.098 537.523 284.32 537.851 283.47C538.178 282.62 538.335 281.713 538.312 280.802C538.289 279.891 538.087 278.994 537.718 278.161C537.348 277.328 536.818 276.576 536.158 275.948C535.498 275.32 534.72 274.829 533.87 274.501C533.02 274.174 532.113 274.017 531.203 274.04C530.784 274.038 530.366 274.082 529.956 274.169C529.51 273.687 528.969 273.304 528.366 273.044C527.763 272.783 527.112 272.652 526.456 272.659L497.194 273.415C496.951 273.424 496.71 273.454 496.472 273.504C495.83 273.624 495.222 273.88 494.687 274.254C494.152 274.629 493.704 275.114 493.373 275.676C493.041 276.239 492.834 276.866 492.765 277.515C492.696 278.164 492.767 278.821 492.973 279.44L498.058 316.802ZM529.06 285.333L530.975 278.472C531.193 277.679 531.198 276.843 530.99 276.048C531.083 276.048 531.165 276.004 531.258 276.004C532.571 275.977 533.842 276.471 534.791 277.38C535.74 278.288 536.291 279.536 536.321 280.85C536.352 282.163 535.861 283.435 534.955 284.387C534.049 285.339 532.803 285.893 531.49 285.927C530.641 285.954 529.801 285.748 529.06 285.333Z" fill="#2F2E41"/>
<path d="M496.472 273.504C497.095 277.07 504.104 279.576 512.532 279.14C520.282 278.783 526.619 276.061 527.78 272.836C527.35 272.708 526.904 272.649 526.456 272.659L497.193 273.415C496.951 273.424 496.709 273.454 496.472 273.504Z" fill="#3F3D56"/>
<path d="M514.077 300.982C514.115 300.972 514.152 300.956 514.185 300.934L518.316 298.229C518.366 298.197 518.407 298.152 518.436 298.1C518.464 298.047 518.479 297.989 518.479 297.929C518.479 297.869 518.464 297.811 518.436 297.758C518.408 297.706 518.367 297.661 518.317 297.629L514.023 294.816C513.983 294.79 513.939 294.772 513.893 294.763C513.846 294.754 513.799 294.754 513.752 294.763C513.706 294.773 513.662 294.792 513.623 294.818C513.584 294.845 513.55 294.879 513.525 294.918C513.499 294.958 513.481 295.002 513.472 295.049C513.463 295.095 513.464 295.143 513.473 295.189C513.483 295.235 513.502 295.279 513.529 295.318C513.555 295.357 513.59 295.39 513.629 295.416L517.464 297.928L513.792 300.333C513.721 300.379 513.669 300.45 513.645 300.531C513.62 300.613 513.626 300.7 513.66 300.778C513.694 300.856 513.755 300.919 513.831 300.956C513.907 300.993 513.994 301.002 514.077 300.982H514.077Z" fill="#2898FF"/>
<path d="M507.552 301.283C507.621 301.265 507.684 301.227 507.732 301.174C507.779 301.12 507.81 301.054 507.82 300.983C507.829 300.912 507.818 300.84 507.786 300.776C507.755 300.712 507.705 300.658 507.643 300.623L503.835 298.439L507.515 295.705C507.553 295.677 507.585 295.642 507.609 295.601C507.633 295.561 507.649 295.516 507.656 295.469C507.663 295.423 507.661 295.375 507.649 295.329C507.638 295.284 507.617 295.241 507.589 295.203C507.561 295.165 507.526 295.133 507.485 295.109C507.445 295.085 507.4 295.069 507.354 295.062C507.307 295.055 507.259 295.057 507.214 295.069C507.168 295.08 507.125 295.101 507.087 295.129L502.966 298.19C502.919 298.226 502.88 298.273 502.855 298.327C502.83 298.381 502.818 298.44 502.822 298.5C502.825 298.559 502.844 298.617 502.875 298.667C502.907 298.718 502.95 298.76 503.002 298.79L507.285 301.246C507.366 301.292 507.462 301.305 507.552 301.283Z" fill="#2898FF"/>
<path d="M513.666 303.352C513.701 303.343 513.734 303.329 513.764 303.31C513.805 303.286 513.84 303.253 513.868 303.215C513.896 303.177 513.916 303.134 513.927 303.088C513.938 303.042 513.94 302.995 513.933 302.948C513.926 302.902 513.909 302.857 513.885 302.817L508.028 293.187C507.979 293.105 507.899 293.047 507.806 293.025C507.714 293.002 507.616 293.018 507.535 293.067C507.454 293.117 507.396 293.196 507.373 293.289C507.35 293.381 507.366 293.479 507.415 293.56L513.271 303.19C513.311 303.256 513.371 303.307 513.442 303.336C513.513 303.365 513.592 303.37 513.666 303.352Z" fill="#2898FF"/>
<path d="M184.431 187.328H152.699C151.404 187.328 150.355 188.378 150.355 189.672V192.773C150.355 194.068 151.404 195.118 152.699 195.118H184.431C185.726 195.118 186.775 194.068 186.775 192.773V189.672C186.775 188.378 185.726 187.328 184.431 187.328Z" fill="#3D69B7"/>
<path d="M202.928 202.907H134.202C132.908 202.907 131.858 203.957 131.858 205.251V208.352C131.858 209.647 132.908 210.696 134.202 210.696H202.928C204.223 210.696 205.272 209.647 205.272 208.352V205.251C205.272 203.957 204.223 202.907 202.928 202.907Z" fill="#E6E6E6"/>
<path d="M202.928 218.486H134.202C132.908 218.486 131.858 219.536 131.858 220.83V223.931C131.858 225.226 132.908 226.275 134.202 226.275H202.928C204.223 226.275 205.272 225.226 205.272 223.931V220.83C205.272 219.536 204.223 218.486 202.928 218.486Z" fill="#E6E6E6"/>
<path d="M208.754 270.654L208.91 271.145L208.918 271.162L213.603 285.409L218.993 301.828L229.135 332.683L229.233 337.476V337.493L229.987 376.049L227.898 381.277L230.249 389.847C230.249 389.847 229.167 376.892 223.368 384.332C220.083 388.559 216.241 392.885 213.087 396.941C217.683 398.801 222.352 400.483 227.095 401.988C228.119 402.315 229.151 402.627 230.183 402.938C230.404 403.004 230.626 403.069 230.847 403.135C246.569 407.785 262.823 410.398 279.21 410.91C280.062 410.935 280.898 410.951 281.709 410.967C281.995 410.975 282.274 410.984 282.552 410.984C283.47 410.992 284.379 411 285.296 411C287.148 411 288.991 410.973 290.826 410.918C304.407 410.535 317.909 408.709 331.104 405.47C331.014 400.021 330.768 393.655 330.416 386.855C330.252 383.52 326.574 379.907 326.353 376.417C326.197 373.795 329.498 371.329 329.326 368.666C328.212 352.272 326.82 358.565 325.788 346.956C325.681 345.817 325.583 344.727 325.493 343.687C324.829 336.231 324.37 331.569 324.37 331.569L328.778 303.786L335.699 260.167L335.167 259.29L334.569 258.995L298.059 240.921L296.077 235.841C295.499 234.378 294.497 233.121 293.199 232.232C291.901 231.342 290.367 230.862 288.794 230.852L264.744 230.753C263.495 230.748 262.264 231.04 261.151 231.606C260.039 232.171 259.077 232.994 258.346 234.006L251.834 243.027L208.754 270.654Z" fill="#3F3D56"/>
<path d="M234.681 325.818L229.233 337.476L225.514 345.44L219.117 378.942L215.914 382.342L213.169 370.305L184.448 376.683C183.506 371.448 184.196 376.86 183.614 371.117C183.778 370.953 183.95 370.789 184.122 370.626C184.581 370.199 184.966 369.798 184.957 369.413C184.63 349.602 185.613 315.888 193.821 295.462C195.106 292.127 196.801 288.965 198.867 286.048C199.031 285.827 199.186 285.606 199.342 285.385C203.126 280.084 205.518 274.865 208.91 271.153V271.145C208.931 271.128 208.95 271.109 208.967 271.088C208.979 271.082 208.991 271.073 209 271.063L232.297 258.708L233.296 286.794L234.009 306.982L234.681 325.818Z" fill="#3F3D56"/>
<path d="M318.685 329.129L325.49 343.691L327.865 348.762L334.26 382.26L337.453 385.652L340.203 373.618L341.496 373.353L364.804 368.525L371.597 390.105C373.128 387.553 373.731 384.551 373.305 381.606C372.878 378.66 371.448 375.953 369.255 373.941C368.791 373.521 368.405 373.112 368.416 372.726C368.802 349.425 367.377 306.878 354.508 289.366C350.421 283.809 347.969 278.274 344.401 274.407C344.39 274.396 344.39 274.385 344.379 274.385L335.696 260.166L335.166 259.293L334.57 258.994L318.685 329.129Z" fill="#3F3D56"/>
<path d="M277.464 223.908C295.135 223.908 309.46 209.58 309.46 191.906C309.46 174.231 295.135 159.903 277.464 159.903C259.793 159.903 245.467 174.231 245.467 191.906C245.467 209.58 259.793 223.908 277.464 223.908Z" fill="#FFB6B6"/>
<path d="M320.711 169.552C320.463 169.287 320.164 169.075 319.832 168.928C319.5 168.781 319.142 168.703 318.779 168.698L319.26 167.362C319.417 166.941 319.46 166.486 319.383 166.043C319.307 165.601 319.114 165.187 318.824 164.843C318.535 164.5 318.16 164.239 317.737 164.089C317.314 163.938 316.858 163.903 316.417 163.986L314.665 164.324L314.83 163.153C314.893 162.717 314.842 162.272 314.681 161.862C314.52 161.452 314.256 161.09 313.913 160.813C313.57 160.537 313.161 160.354 312.727 160.283C312.292 160.212 311.846 160.256 311.433 160.409C311.058 160.557 310.654 160.619 310.251 160.591C309.849 160.562 309.458 160.444 309.107 160.244C308.754 160.051 308.449 159.783 308.21 159.459C307.972 159.135 307.808 158.764 307.728 158.37L307.118 155.425L307.053 155.267C304.08 150.311 298.364 146.706 291.37 145.384C285.144 144.199 278.761 144.803 272.607 145.37C270.165 145.6 267.408 145.858 265.11 147.266C263.157 148.473 261.505 150.886 261.843 153.321C255.775 151.461 249.269 155.174 246.045 159.856C242.225 165.43 241.6 172.411 241.499 177.869C241.227 190.782 243.891 201.347 249.398 209.276C249.801 209.851 249.901 211.05 250.698 211.452L250.533 211.187C251.423 211.632 252.328 212.35 251.991 213.119C251.021 215.331 257.462 220.222 262.001 221.838C270.28 224.79 281.288 224.538 289.029 223.475L289.302 221.644C292.095 221.263 294.063 220.538 294.616 219.403C295.593 218.57 296.425 217.823 297.151 217.133L297.158 217.126C297.172 217.112 297.201 217.09 297.215 217.076C300.712 213.722 301.524 211.812 301.89 208.903C302.242 206.052 301.617 203.157 300.978 200.55C314.435 202.633 295.679 186.215 308.216 183.04C308.36 182.996 308.506 182.96 308.654 182.932C309.021 182.846 309.387 182.76 309.739 182.659C311.435 182.199 313.059 181.505 314.564 180.598C318.068 178.465 319.225 175.635 321.034 172.447C321.295 171.993 321.405 171.467 321.347 170.946C321.288 170.426 321.066 169.937 320.711 169.552Z" fill="#2F2E41"/>
<path d="M390.63 331.408C390.623 332.664 390.609 334.424 390.551 336.6C390.544 336.902 390.537 337.211 390.53 337.527C390.436 341.527 390.343 344.881 390.192 348.609C390.185 348.867 390.178 349.118 390.163 349.377C389.962 354.577 389.646 360.631 389.101 370.219C388.088 387.93 386.322 372.654 384.548 378.867C384.462 379.175 384.368 379.542 384.282 379.973C384.014 381.536 383.561 383.062 382.932 384.519C381.992 385.079 381.022 385.618 380.067 386.157C377.346 387.672 374.581 389.13 371.795 390.516C370.229 391.292 368.657 392.053 367.077 392.786C366.826 392.9 366.582 393.015 366.338 393.123C358.248 396.866 349.91 400.048 341.384 402.647C339.718 403.149 338.06 403.638 336.379 404.09C334.627 404.579 332.875 405.038 331.101 405.469C317.907 408.709 304.405 410.536 290.824 410.92C288.993 410.978 287.148 410.999 285.295 410.999C284.376 410.999 283.471 410.992 282.552 410.985C282.272 410.985 281.992 410.978 281.712 410.971C280.9 410.949 280.06 410.935 279.213 410.913C262.825 410.402 246.572 407.788 230.85 403.135L230.182 402.941C229.148 402.625 228.121 402.316 227.095 401.986C222.355 400.485 217.685 398.804 213.085 396.944C209.573 395.529 206.103 394.011 202.673 392.391C202.641 392.382 202.612 392.367 202.586 392.347C201.868 392.017 201.143 391.672 200.425 391.32C200.332 391.27 200.231 391.22 200.131 391.17C197.452 389.862 194.802 388.493 192.181 387.061C189.977 381.998 186.875 381.028 184.95 376.576C184.39 375.253 183.985 373.869 183.744 372.453C183.744 372.439 183.737 372.424 183.737 372.403C183.938 375.075 182.882 367.663 183.73 372.374C183.723 372.288 183.715 372.195 183.708 372.087C183.687 371.828 183.658 371.512 183.615 371.117C181.152 347.064 181.31 319.557 180.24 296.89C180.168 295.425 180.094 294.022 180.017 292.682C179.996 292.236 179.967 291.798 179.938 291.367C179.988 291.238 180.046 291.102 180.111 290.972C180.124 290.935 180.141 290.899 180.161 290.865C180.182 290.82 180.206 290.777 180.233 290.735C180.247 290.714 180.269 290.685 180.283 290.664C180.293 290.639 180.305 290.615 180.319 290.592C180.383 290.491 180.455 290.383 180.534 290.283C180.57 290.24 180.599 290.204 180.635 290.168C180.66 290.131 180.688 290.098 180.721 290.067C180.743 290.033 180.77 290.002 180.8 289.974C180.829 289.945 180.857 289.909 180.893 289.874C180.909 289.851 180.928 289.831 180.951 289.816C181.008 289.751 181.07 289.691 181.137 289.637C181.394 289.401 181.667 289.185 181.956 288.99C182.057 288.926 182.164 288.861 182.265 288.789C182.988 288.356 183.75 287.991 184.541 287.697C184.814 287.597 185.087 287.504 185.381 287.403C185.489 287.374 185.59 287.338 185.697 287.302C185.855 287.252 186.013 287.202 186.178 287.166C186.997 286.922 187.88 286.713 188.835 286.52C188.95 286.498 189.072 286.476 189.194 286.448C189.367 286.412 189.546 286.383 189.726 286.354C189.97 286.311 190.221 286.268 190.472 286.225C192.605 285.888 195.025 285.636 197.696 285.471C197.948 285.457 198.199 285.442 198.45 285.428C198.745 285.414 199.039 285.399 199.341 285.385C199.592 285.37 199.851 285.363 200.109 285.356C200.36 285.342 200.619 285.335 200.885 285.327C201.61 285.306 202.357 285.284 203.118 285.27C205.286 285.227 207.57 285.241 209.968 285.291C211.081 285.32 212.216 285.349 213.379 285.399C213.458 285.399 213.53 285.406 213.602 285.406C214.614 285.442 215.634 285.485 216.682 285.543C217.415 285.579 218.154 285.615 218.894 285.658C219.591 285.701 220.294 285.744 221.005 285.794C221.558 285.823 222.111 285.866 222.671 285.902C223.145 285.938 223.619 285.974 224.093 286.002L224.739 286.046C225.091 286.074 225.443 286.096 225.802 286.132C226.592 286.196 227.382 286.261 228.186 286.326C228.983 286.397 229.795 286.469 230.606 286.541C231.417 286.613 232.236 286.692 233.055 286.771C233.141 286.778 233.22 286.785 233.299 286.792C234.046 286.871 234.792 286.943 235.546 287.022C235.719 287.037 235.898 287.051 236.071 287.073C236.789 287.145 237.522 287.229 238.248 287.306C238.47 287.331 238.692 287.354 238.915 287.378C239.483 287.44 240.044 287.494 240.616 287.561C241.37 287.647 242.138 287.726 242.885 287.827C243.467 287.891 244.048 287.956 244.63 288.028C245.542 288.136 246.468 288.25 247.395 288.373C247.746 288.416 248.098 288.459 248.45 288.509C251.093 288.839 253.764 289.206 256.478 289.586C260.593 290.168 264.772 290.8 268.98 291.482C273.195 292.165 277.434 292.885 281.697 293.644C282.774 293.838 283.852 294.032 284.936 294.233C285.424 294.326 285.912 294.42 286.401 294.513C287.234 294.664 288.067 294.822 288.9 294.98C289.733 295.138 290.566 295.296 291.399 295.461C292.39 295.655 293.388 295.849 294.379 296.043C300.906 297.336 307.397 298.715 313.731 300.158C314.772 300.395 315.813 300.639 316.847 300.877C318.915 301.358 320.964 301.846 322.994 302.342C323.554 302.471 324.107 302.607 324.66 302.744C326.039 303.089 327.417 303.433 328.775 303.785L329.012 303.85C330.01 304.094 330.986 304.345 331.963 304.604C334.268 305.207 336.535 305.818 338.763 306.435C340.242 306.845 341.705 307.259 343.151 307.678C345.312 308.303 347.43 308.935 349.491 309.574C350.001 309.732 350.511 309.89 351.014 310.041C352.522 310.508 354.008 310.982 355.451 311.456C356.6 311.829 357.72 312.21 358.826 312.59C359.932 312.971 361.016 313.352 362.079 313.732C362.761 313.977 363.436 314.235 364.111 314.479C365.081 314.838 366.036 315.198 366.969 315.557C367.257 315.664 367.537 315.779 367.817 315.887C367.996 315.966 368.169 316.031 368.341 316.102C368.678 316.239 369.023 316.368 369.353 316.505C369.691 316.634 370.021 316.77 370.352 316.914C370.675 317.043 371.005 317.18 371.321 317.316C371.644 317.446 371.96 317.582 372.276 317.726C372.542 317.833 372.8 317.948 373.051 318.063C373.561 318.286 374.071 318.509 374.567 318.738C374.811 318.853 375.055 318.961 375.299 319.076L375.859 319.334C375.938 319.378 376.017 319.413 376.096 319.449C376.276 319.536 376.462 319.629 376.642 319.715C377.058 319.909 377.468 320.117 377.87 320.311C378.408 320.584 378.933 320.857 379.435 321.123C379.945 321.396 380.441 321.669 380.914 321.934C380.993 321.977 381.065 322.021 381.144 322.064C381.252 322.121 381.36 322.186 381.467 322.243C381.834 322.451 382.186 322.667 382.537 322.875C383.227 323.299 383.88 323.715 384.491 324.132C384.627 324.225 384.756 324.319 384.893 324.405C385.345 324.728 385.776 325.044 386.178 325.367C386.178 325.375 386.178 325.375 386.185 325.375C386.322 325.475 386.451 325.583 386.58 325.683C386.688 325.784 386.803 325.87 386.91 325.971C387.284 326.294 387.629 326.603 387.944 326.919C388.05 327.016 388.151 327.119 388.246 327.228C388.288 327.262 388.326 327.301 388.361 327.342C388.505 327.486 388.634 327.63 388.756 327.773C388.775 327.793 388.792 327.815 388.806 327.838C388.979 328.039 389.137 328.24 389.287 328.441C389.359 328.542 389.438 328.642 389.503 328.743C389.589 328.865 389.675 328.994 389.747 329.116C389.811 329.217 389.869 329.325 389.926 329.425C390.079 329.684 390.209 329.956 390.314 330.237C390.395 330.427 390.46 330.624 390.508 330.826C390.562 331.016 390.603 331.211 390.63 331.408Z" fill="#2F2E41"/>
<path opacity="0.2" d="M390.63 331.408C390.623 332.664 390.609 334.424 390.551 336.6C390.544 336.902 390.53 337.211 390.522 337.527C390.451 340.579 390.343 344.35 390.192 348.609C390.185 348.867 390.178 349.119 390.163 349.377C389.962 354.577 389.646 360.631 389.101 370.219C388.088 387.93 386.322 372.654 384.548 378.867C379.622 375.836 374.222 372.661 368.449 369.401C367.407 368.812 366.357 368.22 365.296 367.627C353.749 361.184 340.853 354.433 327.389 347.747C326.857 347.481 326.319 347.215 325.787 346.957C294.946 331.709 261.282 316.878 234.01 306.981C228.746 305.071 223.719 303.347 218.994 301.832C209.042 298.65 200.439 296.424 193.819 295.461C186.925 294.456 182.164 294.815 180.24 296.89C180.168 295.425 180.094 294.022 180.017 292.682C179.988 292.236 179.96 291.798 179.931 291.367C179.975 291.249 180.033 291.136 180.089 291.023C180.097 291.006 180.102 290.989 180.11 290.972C180.124 290.935 180.141 290.899 180.161 290.865C180.182 290.82 180.206 290.777 180.233 290.735C180.256 290.684 180.285 290.636 180.319 290.592C180.383 290.491 180.455 290.383 180.534 290.283C180.592 290.208 180.655 290.136 180.721 290.067C180.743 290.033 180.769 290.001 180.8 289.974C180.829 289.945 180.857 289.909 180.893 289.874C180.908 289.851 180.928 289.831 180.951 289.816C181.007 289.751 181.07 289.691 181.137 289.637C181.394 289.401 181.667 289.185 181.956 288.99C182.056 288.926 182.164 288.861 182.265 288.789C182.988 288.356 183.75 287.991 184.541 287.697C184.814 287.597 185.087 287.503 185.381 287.403C185.489 287.374 185.589 287.338 185.697 287.302C185.855 287.252 186.013 287.202 186.178 287.166C186.997 286.922 187.88 286.713 188.835 286.52C189.122 286.462 189.424 286.405 189.726 286.354C189.97 286.311 190.221 286.268 190.472 286.225C192.605 285.888 195.025 285.636 197.696 285.471C197.948 285.457 198.199 285.442 198.45 285.428C198.745 285.413 199.039 285.399 199.341 285.385C199.592 285.37 199.85 285.363 200.109 285.356C200.36 285.342 200.619 285.334 200.885 285.327C201.61 285.306 202.357 285.284 203.118 285.27C205.286 285.234 207.57 285.248 209.968 285.299C211.081 285.32 212.216 285.356 213.379 285.406C213.451 285.406 213.53 285.413 213.602 285.413C214.614 285.442 215.641 285.492 216.682 285.543C217.415 285.579 218.154 285.615 218.894 285.658C219.59 285.701 220.294 285.744 221.005 285.794C221.558 285.823 222.111 285.866 222.671 285.902C223.145 285.938 223.619 285.974 224.093 286.002C224.66 286.045 225.227 286.089 225.802 286.132C226.592 286.196 227.382 286.261 228.186 286.326C228.983 286.397 229.794 286.469 230.606 286.541C231.417 286.613 232.236 286.692 233.054 286.771C233.141 286.778 233.22 286.785 233.299 286.792C234.045 286.871 234.792 286.943 235.546 287.022C239.725 287.446 244.027 287.942 248.45 288.509C251.093 288.847 253.769 289.208 256.478 289.593C260.593 290.175 264.772 290.807 268.98 291.482C273.195 292.165 277.434 292.885 281.697 293.644C282.774 293.838 283.851 294.032 284.936 294.233C286.257 294.477 287.578 294.726 288.9 294.98C289.733 295.138 290.566 295.296 291.398 295.461C292.389 295.655 293.388 295.849 294.379 296.043C300.906 297.336 307.397 298.715 313.731 300.158C314.772 300.395 315.813 300.639 316.847 300.876C318.915 301.358 320.964 301.846 322.994 302.342C323.554 302.478 324.107 302.615 324.66 302.751C326.046 303.096 327.417 303.44 328.775 303.785V303.792C328.854 303.807 328.933 303.828 329.012 303.85C330.003 304.101 330.986 304.353 331.963 304.611C334.268 305.214 336.535 305.823 338.763 306.435C340.242 306.852 341.707 307.261 343.151 307.678C345.312 308.31 347.43 308.942 349.491 309.574C350.001 309.732 350.511 309.89 351.014 310.041C352.522 310.515 354.001 310.986 355.451 311.456C356.6 311.829 357.72 312.21 358.826 312.59C359.932 312.971 361.016 313.352 362.079 313.732C362.769 313.977 363.444 314.228 364.111 314.472C365.088 314.831 366.036 315.19 366.969 315.557C367.257 315.664 367.537 315.779 367.817 315.887C368.341 316.088 368.851 316.296 369.353 316.505C369.691 316.634 370.021 316.77 370.351 316.914C370.675 317.043 371.005 317.18 371.321 317.316C371.644 317.446 371.96 317.582 372.276 317.726C372.542 317.833 372.8 317.948 373.051 318.063C373.561 318.286 374.071 318.508 374.567 318.738C374.811 318.853 375.055 318.961 375.299 319.076L375.859 319.334C375.938 319.378 376.017 319.413 376.096 319.449C376.706 319.737 377.295 320.024 377.87 320.311C378.408 320.584 378.933 320.857 379.435 321.123C380.031 321.439 380.598 321.748 381.144 322.064C381.252 322.121 381.36 322.186 381.467 322.243C381.834 322.451 382.185 322.667 382.537 322.875C383.227 323.299 383.88 323.715 384.49 324.132C385.094 324.549 385.654 324.958 386.178 325.367C386.178 325.375 386.178 325.374 386.185 325.374C386.436 325.576 386.681 325.777 386.91 325.971C387.284 326.294 387.628 326.603 387.944 326.919C388.05 327.016 388.151 327.119 388.246 327.227C388.288 327.262 388.326 327.301 388.361 327.342C388.512 327.508 388.663 327.673 388.806 327.838C388.979 328.039 389.136 328.24 389.287 328.441C389.359 328.542 389.438 328.642 389.503 328.743C389.589 328.865 389.675 328.994 389.747 329.116C389.811 329.217 389.869 329.325 389.926 329.425C390.079 329.684 390.208 329.956 390.314 330.237C390.393 330.428 390.457 330.625 390.508 330.826C390.562 331.017 390.603 331.211 390.63 331.408Z" fill="black"/>
</g>
<defs>
<clipPath id="clip0_28_17">
<rect width="565" height="411" fill="white"/>
</clipPath>
</defs>
</svg>
