<svg width="450" height="400" viewBox="0 0 450 400" fill="none" xmlns="http://www.w3.org/2000/svg">
<g clip-path="url(#clip0_28_159)">
<path d="M218.778 125.143C219.967 112.278 223.251 99.6956 228.499 87.8994C229.961 84.6167 231.571 81.4063 233.328 78.2681C233.417 78.1039 233.438 77.9119 233.388 77.7323C233.337 77.5528 233.22 77.3998 233.06 77.3057C232.899 77.2116 232.709 77.1837 232.529 77.2279C232.348 77.2721 232.192 77.385 232.093 77.5426C225.703 88.9727 221.227 101.38 218.842 114.269C218.179 117.868 217.681 121.493 217.347 125.143C217.262 126.064 218.693 126.058 218.778 125.143Z" fill="#E6E6E6"/>
<path d="M236.793 80.5734C241.798 80.5734 245.854 76.4978 245.854 71.4703C245.854 66.4428 241.798 62.3672 236.793 62.3672C231.789 62.3672 227.733 66.4428 227.733 71.4703C227.733 76.4978 231.789 80.5734 236.793 80.5734Z" fill="#E6E6E6"/>
<path d="M219.705 125.385C220.476 117.038 222.607 108.876 226.011 101.223C226.96 99.0936 228.005 97.0108 229.144 94.9749C229.202 94.8684 229.215 94.7438 229.183 94.6273C229.15 94.5109 229.074 94.4117 228.97 94.3506C228.866 94.2896 228.743 94.2715 228.626 94.3002C228.509 94.3288 228.407 94.402 228.343 94.5043C224.198 101.919 221.293 109.969 219.747 118.33C219.316 120.665 218.993 123.017 218.777 125.385C218.722 125.982 219.65 125.978 219.705 125.385Z" fill="#E6E6E6"/>
<path d="M231.392 96.4704C234.639 96.4704 237.271 93.8263 237.271 90.5648C237.271 87.3032 234.639 84.6592 231.392 84.6592C228.146 84.6592 225.514 87.3032 225.514 90.5648C225.514 93.8263 228.146 96.4704 231.392 96.4704Z" fill="#E6E6E6"/>
<path d="M218.533 124.827C214.031 117.77 210.714 110.017 208.713 101.879C208.158 99.6139 207.706 97.3263 207.359 95.0166C207.339 94.8973 207.273 94.7905 207.176 94.7187C207.079 94.647 206.958 94.6159 206.839 94.632C206.72 94.6481 206.611 94.7101 206.536 94.8051C206.462 94.9 206.427 95.0203 206.439 95.1407C207.71 103.549 210.348 111.69 214.247 119.239C215.337 121.346 216.522 123.4 217.801 125.401C218.123 125.906 218.853 125.329 218.533 124.827Z" fill="#E6E6E6"/>
<path d="M206.432 96.0558C209.679 96.0558 212.311 93.4118 212.311 90.1502C212.311 86.8887 209.679 84.2446 206.432 84.2446C203.186 84.2446 200.554 86.8887 200.554 90.1502C200.554 93.4118 203.186 96.0558 206.432 96.0558Z" fill="#E6E6E6"/>
<path d="M200.487 130.052V118.449C200.489 117.295 200.945 116.189 201.757 115.374C202.569 114.558 203.67 114.099 204.818 114.098H231.767C232.915 114.099 234.016 114.558 234.828 115.374C235.64 116.189 236.096 117.295 236.098 118.449V130.052C236.096 131.206 235.64 132.312 234.828 133.128C234.016 133.943 232.915 134.402 231.767 134.403H204.818C203.67 134.402 202.569 133.943 201.757 133.128C200.945 132.312 200.489 131.206 200.487 130.052Z" fill="#F2F2F2"/>
<path d="M230.804 56.0821H219.255C218.107 56.0808 217.006 55.6219 216.194 54.8062C215.382 53.9905 214.925 52.8845 214.924 51.7309V4.35119C214.925 3.19759 215.382 2.09161 216.194 1.27589C217.006 0.46016 218.107 0.0013001 219.255 0H230.804C231.953 0.0013001 233.053 0.46016 233.865 1.27589C234.677 2.09161 235.134 3.19759 235.135 4.35119V51.7309C235.134 52.8845 234.677 53.9905 233.865 54.8062C233.053 55.6219 231.953 56.0808 230.804 56.0821Z" fill="#F2F2F2"/>
<path d="M234.655 9.18591H215.406V13.0536H234.655V9.18591Z" fill="#CCCCCC"/>
<path d="M234.655 39.1608H215.406V43.0285H234.655V39.1608Z" fill="#CCCCCC"/>
<path d="M259.678 56.0821H248.129C246.98 56.0808 245.879 55.6219 245.068 54.8062C244.256 53.9905 243.799 52.8845 243.798 51.7309V4.35119C243.799 3.19759 244.256 2.09161 245.068 1.27589C245.879 0.46016 246.98 0.0013001 248.129 0H259.678C260.826 0.0013001 261.927 0.46016 262.739 1.27589C263.551 2.09161 264.008 3.19759 264.009 4.35119V51.7309C264.008 52.8845 263.551 53.9905 262.739 54.8062C261.927 55.6219 260.826 56.0808 259.678 56.0821Z" fill="#F2F2F2"/>
<path d="M263.528 9.18591H244.279V13.0536H263.528V9.18591Z" fill="#CCCCCC"/>
<path d="M263.528 39.1608H244.279V43.0285H263.528V39.1608Z" fill="#CCCCCC"/>
<path d="M288.551 56.0821H277.002C275.854 56.0808 274.753 55.6219 273.941 54.8062C273.129 53.9905 272.672 52.8845 272.671 51.7309V4.35119C272.672 3.19759 273.129 2.09161 273.941 1.27589C274.753 0.46016 275.854 0.0013001 277.002 0H288.551C289.7 0.0013001 290.801 0.46016 291.613 1.27589C292.424 2.09161 292.881 3.19759 292.882 4.35119V51.7309C292.881 52.8845 292.424 53.9905 291.613 54.8062C290.801 55.6219 289.7 56.0808 288.551 56.0821Z" fill="#F2F2F2"/>
<path d="M292.4 9.18591H273.151V13.0536H292.4V9.18591Z" fill="#CCCCCC"/>
<path d="M292.4 39.1608H273.151V43.0285H292.4V39.1608Z" fill="#CCCCCC"/>
<path d="M303.95 134.404H292.401C291.253 134.402 290.152 133.943 289.34 133.128C288.528 132.312 288.071 131.206 288.07 130.052V82.6727C288.071 81.5191 288.528 80.4131 289.34 79.5974C290.152 78.7817 291.253 78.3228 292.401 78.3215H303.95C305.098 78.3228 306.199 78.7817 307.011 79.5974C307.823 80.4131 308.28 81.5191 308.281 82.6727V130.052C308.28 131.206 307.823 132.312 307.011 133.128C306.199 133.943 305.098 134.402 303.95 134.404Z" fill="#F2F2F2"/>
<path d="M307.8 87.5073H288.551V91.3751H307.8V87.5073Z" fill="#CCCCCC"/>
<path d="M307.8 117.482H288.551V121.35H307.8V117.482Z" fill="#CCCCCC"/>
<path d="M332.823 134.404H321.274C320.126 134.402 319.025 133.943 318.213 133.128C317.401 132.312 316.944 131.206 316.943 130.052V82.6727C316.944 81.5191 317.401 80.4131 318.213 79.5974C319.025 78.7817 320.126 78.3228 321.274 78.3215H332.823C333.972 78.3228 335.073 78.7817 335.884 79.5974C336.696 80.4131 337.153 81.5191 337.154 82.6727V130.052C337.153 131.206 336.696 132.312 335.884 133.128C335.073 133.943 333.972 134.402 332.823 134.404Z" fill="#F2F2F2"/>
<path d="M336.673 87.5073H317.424V91.3751H336.673V87.5073Z" fill="#CCCCCC"/>
<path d="M336.673 117.482H317.424V121.35H336.673V117.482Z" fill="#CCCCCC"/>
<path d="M361.697 134.404H350.147C348.999 134.402 347.898 133.943 347.086 133.128C346.274 132.312 345.818 131.206 345.816 130.052V82.6727C345.818 81.5191 346.274 80.4131 347.086 79.5974C347.898 78.7817 348.999 78.3228 350.147 78.3215H361.697C362.845 78.3228 363.946 78.7817 364.758 79.5974C365.57 80.4131 366.026 81.5191 366.028 82.6727V130.052C366.026 131.206 365.57 132.312 364.758 133.128C363.946 133.943 362.845 134.402 361.697 134.404Z" fill="#F2F2F2"/>
<path d="M365.546 87.5073H346.298V91.3751H365.546V87.5073Z" fill="#CCCCCC"/>
<path d="M365.546 117.482H346.298V121.35H365.546V117.482Z" fill="#CCCCCC"/>
<path d="M227.917 212.725H216.368C215.219 212.724 214.118 212.265 213.307 211.449C212.495 210.634 212.038 209.528 212.037 208.374V160.994C212.038 159.841 212.495 158.735 213.307 157.919C214.118 157.103 215.219 156.644 216.368 156.643H227.917C229.065 156.644 230.166 157.103 230.978 157.919C231.79 158.735 232.247 159.841 232.248 160.994V208.374C232.247 209.528 231.79 210.634 230.978 211.449C230.166 212.265 229.065 212.724 227.917 212.725Z" fill="#F2F2F2"/>
<path d="M231.767 165.829H212.518V169.696H231.767V165.829Z" fill="#CCCCCC"/>
<path d="M231.767 195.804H212.518V199.671H231.767V195.804Z" fill="#CCCCCC"/>
<path d="M256.791 212.725H245.241C244.093 212.724 242.992 212.265 242.18 211.449C241.368 210.633 240.912 209.527 240.91 208.374V160.994C240.912 159.841 241.368 158.735 242.18 157.919C242.992 157.103 244.093 156.644 245.241 156.643H256.791C257.939 156.644 259.04 157.103 259.852 157.919C260.664 158.735 261.12 159.841 261.122 160.994V208.374C261.12 209.527 260.664 210.633 259.852 211.449C259.04 212.265 257.939 212.724 256.791 212.725Z" fill="#F2F2F2"/>
<path d="M260.64 165.829H241.392V169.697H260.64V165.829Z" fill="#CCCCCC"/>
<path d="M260.64 195.804H241.392V199.671H260.64V195.804Z" fill="#CCCCCC"/>
<path d="M285.664 212.725H274.115C272.966 212.724 271.866 212.265 271.054 211.449C270.242 210.633 269.785 209.527 269.784 208.374V160.994C269.785 159.841 270.242 158.735 271.054 157.919C271.866 157.103 272.966 156.644 274.115 156.643H285.664C286.812 156.644 287.913 157.103 288.725 157.919C289.537 158.735 289.994 159.841 289.995 160.994V208.374C289.994 209.527 289.537 210.633 288.725 211.449C287.913 212.265 286.812 212.724 285.664 212.725Z" fill="#F2F2F2"/>
<path d="M289.513 165.829H270.264V169.696H289.513V165.829Z" fill="#CCCCCC"/>
<path d="M289.513 195.804H270.264V199.671H289.513V195.804Z" fill="#CCCCCC"/>
<path d="M317.425 56.0821H305.875C304.727 56.0808 303.626 55.6219 302.814 54.8062C302.002 53.9905 301.546 52.8845 301.544 51.7309V4.35119C301.546 3.19759 302.002 2.09161 302.814 1.27589C303.626 0.46016 304.727 0.0013001 305.875 0H317.425C318.573 0.0013001 319.674 0.46016 320.486 1.27589C321.298 2.09161 321.754 3.19759 321.756 4.35119V51.7309C321.754 52.8845 321.298 53.9905 320.486 54.8062C319.674 55.6219 318.573 56.0808 317.425 56.0821Z" fill="#F2F2F2"/>
<path d="M321.274 9.18591H302.025V13.0536H321.274V9.18591Z" fill="#CCCCCC"/>
<path d="M321.274 39.1608H302.025V43.0285H321.274V39.1608Z" fill="#CCCCCC"/>
<path d="M346.297 56.0821H334.748C333.6 56.0808 332.499 55.6219 331.687 54.8062C330.875 53.9905 330.418 52.8845 330.417 51.7309V4.35119C330.418 3.19759 330.875 2.09161 331.687 1.27589C332.499 0.46016 333.6 0.0013001 334.748 0H346.297C347.446 0.0013001 348.546 0.46016 349.358 1.27589C350.17 2.09161 350.627 3.19759 350.628 4.35119V51.7309C350.627 52.8845 350.17 53.9905 349.358 54.8062C348.546 55.6219 347.446 56.0808 346.297 56.0821Z" fill="#F2F2F2"/>
<path d="M350.147 9.18591H330.898V13.0536H350.147V9.18591Z" fill="#CCCCCC"/>
<path d="M350.147 39.1608H330.898V43.0285H350.147V39.1608Z" fill="#CCCCCC"/>
<path d="M375.17 56.0821H363.621C362.473 56.0808 361.372 55.6219 360.56 54.8062C359.748 53.9905 359.291 52.8845 359.29 51.7309V4.35119C359.291 3.19759 359.748 2.09161 360.56 1.27589C361.372 0.46016 362.473 0.0013001 363.621 0H375.17C376.319 0.0013001 377.419 0.46016 378.231 1.27589C379.043 2.09161 379.5 3.19759 379.501 4.35119V51.7309C379.5 52.8845 379.043 53.9905 378.231 54.8062C377.419 55.6219 376.319 56.0808 375.17 56.0821Z" fill="#F2F2F2"/>
<path d="M379.021 9.18591H359.772V13.0536H379.021V9.18591Z" fill="#CCCCCC"/>
<path d="M379.021 39.1608H359.772V43.0285H379.021V39.1608Z" fill="#CCCCCC"/>
<path d="M404.044 56.0821H392.495C391.346 56.0808 390.245 55.6219 389.433 54.8062C388.622 53.9905 388.165 52.8845 388.164 51.7309V4.35119C388.165 3.19759 388.622 2.09161 389.433 1.27589C390.245 0.46016 391.346 0.0013001 392.495 0H404.044C405.192 0.0013001 406.293 0.46016 407.105 1.27589C407.917 2.09161 408.374 3.19759 408.375 4.35119V51.7309C408.374 52.8845 407.917 53.9905 407.105 54.8062C406.293 55.6219 405.192 56.0808 404.044 56.0821Z" fill="#F2F2F2"/>
<path d="M407.894 9.18591H388.645V13.0536H407.894V9.18591Z" fill="#CCCCCC"/>
<path d="M407.894 39.1608H388.645V43.0285H407.894V39.1608Z" fill="#CCCCCC"/>
<path d="M447.298 57.5324H173.001C172.746 57.5324 172.501 57.4305 172.321 57.2492C172.14 57.0678 172.039 56.8219 172.039 56.5654C172.039 56.309 172.14 56.063 172.321 55.8817C172.501 55.7004 172.746 55.5985 173.001 55.5985H447.298C447.553 55.5985 447.798 55.7004 447.978 55.8817C448.159 56.063 448.26 56.309 448.26 56.5654C448.26 56.8219 448.159 57.0678 447.978 57.2492C447.798 57.4305 447.553 57.5324 447.298 57.5324Z" fill="#CCCCCC"/>
<path d="M447.298 135.854H173.001C172.746 135.854 172.501 135.752 172.321 135.571C172.14 135.389 172.039 135.143 172.039 134.887C172.039 134.631 172.14 134.385 172.321 134.203C172.501 134.022 172.746 133.92 173.001 133.92H447.298C447.553 133.92 447.798 134.022 447.978 134.203C448.159 134.385 448.26 134.631 448.26 134.887C448.26 135.143 448.159 135.389 447.978 135.571C447.798 135.752 447.553 135.854 447.298 135.854Z" fill="#CCCCCC"/>
<path d="M447.298 214.175H173.001C172.746 214.175 172.501 214.074 172.321 213.892C172.14 213.711 172.039 213.465 172.039 213.209C172.039 212.952 172.14 212.706 172.321 212.525C172.501 212.343 172.746 212.242 173.001 212.242H447.298C447.553 212.242 447.798 212.343 447.978 212.525C448.159 212.706 448.26 212.952 448.26 213.209C448.26 213.465 448.159 213.711 447.978 213.892C447.798 214.074 447.553 214.175 447.298 214.175Z" fill="#CCCCCC"/>
<path d="M377.58 203.465C378.77 190.599 382.054 178.017 387.302 166.221C388.764 162.938 390.374 159.728 392.131 156.59C392.219 156.426 392.241 156.234 392.191 156.054C392.14 155.874 392.023 155.721 391.863 155.627C391.702 155.533 391.512 155.505 391.332 155.55C391.151 155.594 390.995 155.707 390.896 155.864C384.506 167.294 380.03 179.702 377.645 192.591C376.982 196.19 376.484 199.815 376.15 203.465C376.065 204.385 377.496 204.38 377.58 203.465Z" fill="#E6E6E6"/>
<path d="M395.597 158.895C400.601 158.895 404.658 154.819 404.658 149.792C404.658 144.764 400.601 140.689 395.597 140.689C390.593 140.689 386.536 144.764 386.536 149.792C386.536 154.819 390.593 158.895 395.597 158.895Z" fill="#E6E6E6"/>
<path d="M378.509 203.706C379.28 195.36 381.411 187.197 384.815 179.545C385.764 177.415 386.809 175.332 387.948 173.296C388.006 173.19 388.019 173.065 387.987 172.949C387.954 172.832 387.878 172.733 387.774 172.672C387.67 172.611 387.547 172.593 387.43 172.622C387.313 172.65 387.211 172.724 387.147 172.826C383.002 180.241 380.097 188.29 378.551 196.652C378.12 198.987 377.797 201.338 377.58 203.706C377.525 204.304 378.454 204.3 378.509 203.706Z" fill="#E6E6E6"/>
<path d="M390.196 174.792C393.443 174.792 396.074 172.148 396.074 168.886C396.074 165.625 393.443 162.981 390.196 162.981C386.95 162.981 384.318 165.625 384.318 168.886C384.318 172.148 386.95 174.792 390.196 174.792Z" fill="#E6E6E6"/>
<path d="M377.337 203.149C372.835 196.091 369.518 188.339 367.517 180.201C366.962 177.935 366.51 175.648 366.163 173.338C366.142 173.219 366.077 173.112 365.98 173.04C365.883 172.969 365.762 172.937 365.643 172.953C365.524 172.97 365.415 173.032 365.34 173.127C365.266 173.222 365.231 173.342 365.243 173.462C366.514 181.871 369.152 190.012 373.051 197.561C374.141 199.668 375.326 201.722 376.605 203.722C376.927 204.227 377.657 203.651 377.337 203.149Z" fill="#E6E6E6"/>
<path d="M365.236 174.377C368.483 174.377 371.114 171.733 371.114 168.472C371.114 165.21 368.483 162.566 365.236 162.566C361.99 162.566 359.358 165.21 359.358 168.472C359.358 171.733 361.99 174.377 365.236 174.377Z" fill="#E6E6E6"/>
<path d="M359.29 208.374V196.771C359.291 195.617 359.748 194.511 360.56 193.695C361.372 192.88 362.473 192.421 363.621 192.419H390.569C391.718 192.421 392.819 192.88 393.631 193.695C394.442 194.511 394.899 195.617 394.9 196.771V208.374C394.899 209.527 394.442 210.633 393.631 211.449C392.819 212.265 391.718 212.724 390.569 212.725H363.621C362.473 212.724 361.372 212.265 360.56 211.449C359.748 210.633 359.291 209.527 359.29 208.374Z" fill="#F2F2F2"/>
<path d="M361.64 351.48H-5.05098C-5.30624 351.48 -5.55103 351.378 -5.73152 351.197C-5.91201 351.015 -6.01343 350.769 -6.01343 350.513C-6.01343 350.256 -5.91201 350.01 -5.73152 349.829C-5.55103 349.648 -5.30624 349.546 -5.05098 349.546H361.64C361.895 349.546 362.14 349.648 362.321 349.829C362.501 350.01 362.603 350.256 362.603 350.513C362.603 350.769 362.501 351.015 362.321 351.197C362.14 351.378 361.895 351.48 361.64 351.48Z" fill="#3F3D56"/>
<path d="M185.569 224.812C199.921 224.812 211.555 213.123 211.555 198.705C211.555 184.286 199.921 172.597 185.569 172.597C171.218 172.597 159.583 184.286 159.583 198.705C159.583 213.123 171.218 224.812 185.569 224.812Z" fill="#2F2E41"/>
<path d="M160.879 366.299L160.191 354.466L205.297 346.165L206.313 363.631L160.879 366.299Z" fill="#FFB8B8"/>
<path d="M163.064 345.815L164.392 368.638L150.088 369.478L147.924 332.285C149.803 332.174 151.684 332.437 153.462 333.057C155.239 333.677 156.878 334.643 158.283 335.899C159.689 337.156 160.835 338.678 161.655 340.379C162.475 342.081 162.954 343.928 163.064 345.815Z" fill="#2F2E41"/>
<path d="M180.498 366.191L173.005 375.349L134.281 350.673L145.338 337.158L180.498 366.191Z" fill="#FFB8B8"/>
<path d="M165.049 379.74L179.499 362.078L190.567 371.218L167.02 400C165.567 398.8 164.363 397.324 163.477 395.656C162.591 393.988 162.041 392.161 161.858 390.28C161.675 388.399 161.863 386.499 162.41 384.691C162.958 382.882 163.855 381.2 165.049 379.74Z" fill="#2F2E41"/>
<path d="M158.937 323.603L153.817 347.853C153.699 348.411 153.706 348.989 153.836 349.544C153.967 350.1 154.218 350.619 154.572 351.066C154.926 351.512 155.374 351.874 155.884 352.126C156.394 352.378 156.953 352.513 157.521 352.523L207.855 353.338C208.422 353.347 208.984 353.23 209.501 352.996C210.019 352.761 210.478 352.414 210.846 351.981C211.214 351.547 211.482 351.037 211.631 350.487C211.78 349.937 211.806 349.36 211.708 348.799L207.305 323.734C207.148 322.838 206.682 322.027 205.988 321.443C205.295 320.858 204.419 320.538 203.514 320.538H162.703C161.821 320.538 160.965 320.842 160.28 321.4C159.594 321.958 159.12 322.736 158.937 323.603Z" fill="#2F2E41"/>
<path d="M167.284 332.141C167.284 332.141 118.199 301.199 108.574 317.637C103.762 325.856 106.168 333.833 109.778 339.756C113.127 345.148 117.935 349.472 123.639 352.221L163.434 371.785L177.87 356.314L168.246 347.612L167.284 332.141Z" fill="#2F2E41"/>
<path d="M192.307 327.306C192.307 327.306 255.829 308.935 243.317 343.744C230.805 378.554 183.645 365.017 183.645 365.017L178.833 350.513L195.195 338.91L192.307 327.306Z" fill="#2F2E41"/>
<path d="M185.895 228.415C198.95 228.415 209.534 217.782 209.534 204.666C209.534 191.55 198.95 180.917 185.895 180.917C172.84 180.917 162.257 191.55 162.257 204.666C162.257 217.782 172.84 228.415 185.895 228.415Z" fill="#FFB8B8"/>
<path d="M187.134 331.144C177.312 330.995 167.539 329.701 158.014 327.289L157.732 327.212L144.541 266.252C143.355 260.895 144.161 255.287 146.809 250.487C149.457 245.687 153.763 242.028 158.913 240.199C174.822 234.465 192.162 234.117 208.286 239.209H208.286C213.697 240.961 218.251 244.697 221.04 249.673C223.829 254.65 224.649 260.499 223.334 266.055L208.601 327.161L208.393 327.26C202.27 330.174 194.614 331.144 187.134 331.144Z" fill="#CCCCCC"/>
<path d="M169.415 335.88C169.894 334.542 170.659 333.326 171.657 332.318C172.654 331.31 173.859 330.533 175.187 330.044C176.516 329.554 177.935 329.363 179.344 329.484C180.754 329.605 182.12 330.034 183.347 330.743L209.32 308.093L211.67 325.893L186.645 344.673C185.323 346.664 183.321 348.099 181.016 348.706C178.712 349.312 176.266 349.049 174.143 347.965C172.019 346.881 170.364 345.052 169.493 342.825C168.622 340.597 168.594 338.126 169.415 335.88Z" fill="#FFB8B8"/>
<path d="M194.187 340.82C193.764 340.82 193.344 340.758 192.939 340.636C192.282 340.444 191.68 340.096 191.184 339.622C190.688 339.149 190.312 338.562 190.088 337.913L186.953 328.989C186.66 328.165 186.622 327.27 186.846 326.423C187.07 325.577 187.544 324.819 188.206 324.249L223.594 302.905L209.645 240.382L209.999 240.296C210.144 240.26 224.436 236.992 230.293 252.683C234.395 263.672 249.572 287.567 248.502 303.714C248.298 306.944 247.017 310.011 244.865 312.419C242.714 314.827 239.817 316.437 236.642 316.988L196.809 339.916C196.058 340.501 195.136 340.819 194.187 340.82Z" fill="#CCCCCC"/>
<path d="M198.155 333.758C197.676 332.421 196.911 331.205 195.914 330.197C194.917 329.188 193.711 328.412 192.383 327.922C191.055 327.433 189.636 327.242 188.226 327.362C186.816 327.483 185.45 327.913 184.224 328.622L158.251 305.972L155.901 323.772L180.925 342.552C182.247 344.543 184.25 345.978 186.554 346.584C188.858 347.191 191.304 346.928 193.428 345.844C195.552 344.76 197.206 342.931 198.077 340.704C198.949 338.476 198.976 336.005 198.155 333.758Z" fill="#FFB8B8"/>
<path d="M175.99 340.82C175.041 340.819 174.119 340.501 173.368 339.916L130.647 318.921C127.473 318.371 124.576 316.761 122.424 314.353C120.273 311.944 118.992 308.878 118.788 305.648C117.717 289.501 135.782 263.672 139.884 252.683C145.74 236.992 160.033 240.259 160.178 240.296L160.532 240.382L143.695 304.839L181.971 324.249C182.633 324.819 183.107 325.577 183.331 326.423C183.555 327.27 183.517 328.164 183.224 328.989L180.089 337.913C179.865 338.562 179.489 339.149 178.993 339.622C178.497 340.096 177.895 340.444 177.238 340.636C176.833 340.758 176.413 340.82 175.99 340.82Z" fill="#CCCCCC"/>
<path d="M226.955 350.513H141.297C139.511 350.511 137.799 349.797 136.536 348.528C135.273 347.259 134.562 345.539 134.56 343.744V296.365C134.562 294.57 135.273 292.85 136.536 291.581C137.799 290.312 139.511 289.598 141.297 289.596H226.955C228.741 289.598 230.454 290.312 231.717 291.581C232.98 292.85 233.69 294.57 233.692 296.365V343.744C233.69 345.539 232.979 347.259 231.716 348.528C230.453 349.797 228.741 350.511 226.955 350.513Z" fill="#3D69B7"/>
<path d="M184.126 325.856C187.315 325.856 189.901 323.259 189.901 320.055C189.901 316.85 187.315 314.253 184.126 314.253C180.937 314.253 178.351 316.85 178.351 320.055C178.351 323.259 180.937 325.856 184.126 325.856Z" fill="white"/>
<path d="M162.021 203.7C160.62 200.129 162.918 195.875 166.328 194.145C169.738 192.416 173.853 192.745 177.501 193.885C180.566 194.842 183.439 196.327 186.429 197.499C189.377 198.812 192.598 199.388 195.816 199.179C199.006 198.817 202.18 197.02 203.485 194.073C204.838 191.019 203.918 187.292 201.835 184.686C199.618 182.166 196.749 180.313 193.546 179.334C186.513 176.845 178.39 176.772 171.86 180.39C165.331 184.009 160.894 191.713 162.243 199.081" fill="#2F2E41"/>
<path d="M25.4223 340.185C26.6114 327.319 29.8955 314.737 35.1435 302.941C36.6062 299.658 38.2161 296.448 39.9732 293.31C40.0613 293.146 40.0826 292.953 40.0324 292.774C39.9823 292.594 39.8646 292.441 39.7044 292.347C39.5441 292.253 39.3538 292.225 39.1734 292.27C38.9931 292.314 38.8369 292.427 38.7378 292.584C32.3479 304.014 27.8713 316.422 25.4871 329.311C24.8239 332.91 24.3254 336.535 23.9917 340.185C23.9069 341.105 25.3381 341.099 25.4223 340.185Z" fill="#E6E6E6"/>
<path d="M43.438 295.615C48.4422 295.615 52.4989 291.539 52.4989 286.512C52.4989 281.484 48.4422 277.409 43.438 277.409C38.4339 277.409 34.3772 281.484 34.3772 286.512C34.3772 291.539 38.4339 295.615 43.438 295.615Z" fill="#FFE70F"/>
<path d="M26.3492 340.426C27.1206 332.08 29.2511 323.917 32.6557 316.265C33.6046 314.135 34.6491 312.052 35.789 310.016C35.8461 309.91 35.8599 309.785 35.8274 309.669C35.7948 309.552 35.7185 309.453 35.6146 309.392C35.5106 309.331 35.3871 309.313 35.2702 309.342C35.1532 309.37 35.0519 309.444 34.9876 309.546C30.8421 316.961 27.938 325.01 26.3912 333.372C25.9609 335.707 25.6375 338.058 25.4211 340.426C25.366 341.024 26.2945 341.02 26.3492 340.426H26.3492Z" fill="#E6E6E6"/>
<path d="M38.0371 311.512C41.2836 311.512 43.9153 308.868 43.9153 305.606C43.9153 302.345 41.2836 299.701 38.0371 299.701C34.7907 299.701 32.1589 302.345 32.1589 305.606C32.1589 308.868 34.7907 311.512 38.0371 311.512Z" fill="#FFE70F"/>
<path d="M25.1774 339.869C20.6759 332.811 17.3587 325.059 15.3581 316.921C14.8025 314.655 14.351 312.368 14.0034 310.058C13.9833 309.939 13.9179 309.832 13.8209 309.76C13.724 309.689 13.603 309.657 13.4837 309.673C13.3643 309.69 13.2558 309.752 13.1812 309.847C13.1065 309.941 13.0714 310.062 13.0834 310.182C14.3544 318.591 16.9923 326.732 20.8917 334.281C21.982 336.388 23.1666 338.441 24.4456 340.442C24.7679 340.947 25.4976 340.371 25.1774 339.869Z" fill="#E6E6E6"/>
<path d="M13.0772 311.097C16.3236 311.097 18.9553 308.453 18.9553 305.192C18.9553 301.93 16.3236 299.286 13.0772 299.286C9.83073 299.286 7.19897 301.93 7.19897 305.192C7.19897 308.453 9.83073 311.097 13.0772 311.097Z" fill="#FFE70F"/>
<path d="M7.13232 345.094V333.491C7.13362 332.337 7.59035 331.231 8.40229 330.415C9.21423 329.6 10.3151 329.141 11.4633 329.139H38.4118C39.56 329.141 40.6609 329.6 41.4728 330.415C42.2847 331.231 42.7415 332.337 42.7428 333.491V345.094C42.7415 346.247 42.2847 347.353 41.4728 348.169C40.6609 348.985 39.56 349.444 38.4118 349.445H11.4633C10.3151 349.444 9.21423 348.985 8.40229 348.169C7.59035 347.353 7.13362 346.247 7.13232 345.094Z" fill="#F2F2F2"/>
<path d="M296.589 358.636C296.589 364.995 291.457 367.886 285.127 367.886C278.797 367.886 273.665 364.995 273.665 358.636C273.665 352.276 276.212 344.856 285.127 347.415C294.041 343.576 296.589 352.276 296.589 358.636Z" fill="#FF6584"/>
<path d="M284.568 350.394C284.122 350.395 283.691 350.232 283.356 349.937C283.021 349.641 282.805 349.234 282.747 348.79C282.368 345.617 280.276 339.403 279.395 336.878L279.394 336.878C279.305 336.627 279.278 336.358 279.315 336.094C279.352 335.83 279.452 335.579 279.606 335.363C279.754 335.169 279.941 335.01 280.155 334.894C280.369 334.778 280.604 334.709 280.846 334.692C281.089 334.674 281.332 334.708 281.56 334.792C281.788 334.876 281.996 335.007 282.17 335.177C282.325 335.341 282.445 335.535 282.523 335.747C282.6 335.959 282.634 336.185 282.62 336.411C282.448 339.651 284.798 344.886 286.215 347.719C286.349 347.986 286.416 348.281 286.411 348.58C286.406 348.879 286.328 349.172 286.185 349.435C286.042 349.697 285.838 349.92 285.59 350.085C285.342 350.251 285.058 350.353 284.762 350.383C284.697 350.391 284.633 350.394 284.568 350.394Z" fill="#3F3D56"/>
<path d="M293.049 343.247C297.027 339.975 293.906 333.28 288.926 334.565C288.256 334.726 287.639 335.057 287.132 335.527C284.078 338.426 283.604 345.843 283.604 345.843C283.604 345.843 288.999 346.577 293.049 343.247Z" fill="#3F3D56"/>
</g>
<defs>
<clipPath id="clip0_28_159">
<rect width="450" height="400" fill="white"/>
</clipPath>
</defs>
</svg>
