<svg width="65" height="65" viewBox="0 0 65 65" fill="none" xmlns="http://www.w3.org/2000/svg">
<circle cx="62.5" cy="2.5" r="2.5" transform="rotate(-180 62.5 2.5)" fill="#C8B721"/>
<circle cx="62.5" cy="22.5" r="2.5" transform="rotate(-180 62.5 22.5)" fill="#C8B721"/>
<circle cx="62.5" cy="42.5" r="2.5" transform="rotate(-180 62.5 42.5)" fill="#C8B721"/>
<circle cx="62.5" cy="62.5" r="2.5" transform="rotate(-180 62.5 62.5)" fill="#C8B721"/>
<circle cx="42.5" cy="2.5" r="2.5" transform="rotate(-180 42.5 2.5)" fill="#C8B721"/>
<circle cx="42.5" cy="22.5" r="2.5" transform="rotate(-180 42.5 22.5)" fill="#C8B721"/>
<circle cx="42.5" cy="42.5" r="2.5" transform="rotate(-180 42.5 42.5)" fill="#C8B721"/>
<circle cx="22.5" cy="2.5" r="2.5" transform="rotate(-180 22.5 2.5)" fill="#C8B721"/>
<circle cx="22.5" cy="22.5" r="2.5" transform="rotate(-180 22.5 22.5)" fill="#C8B721"/>
<circle cx="2.5" cy="2.5" r="2.5" transform="rotate(-180 2.5 2.5)" fill="#C8B721"/>
</svg>
